<svg version="1.1" viewBox="0.0 0.0 600.0 371.0" fill="none" stroke="none" stroke-linecap="square" stroke-miterlimit="10" width="600" height="371" xmlns:xlink="http://www.w3.org/1999/xlink" xmlns="http://www.w3.org/2000/svg"><path fill="#ffffff" d="M0 0L600.0 0L600.0 371.0L0 371.0L0 0Z" fill-rule="nonzero"/><path stroke="#333333" stroke-width="1.0" stroke-linecap="butt" d="M98.5 332.5L581.5 332.5" fill-rule="nonzero"/><path stroke="#cccccc" stroke-width="1.0" stroke-linecap="butt" d="M98.5 283.5L581.5 283.5" fill-rule="nonzero"/><path stroke="#cccccc" stroke-width="1.0" stroke-linecap="butt" d="M98.5 234.5L581.5 234.5" fill-rule="nonzero"/><path stroke="#cccccc" stroke-width="1.0" stroke-linecap="butt" d="M98.5 185.5L581.5 185.5" fill-rule="nonzero"/><path stroke="#cccccc" stroke-width="1.0" stroke-linecap="butt" d="M98.5 137.5L581.5 137.5" fill-rule="nonzero"/><path stroke="#cccccc" stroke-width="1.0" stroke-linecap="butt" d="M98.5 88.5L581.5 88.5" fill-rule="nonzero"/><clipPath id="id_0"><path d="M98.55 88.28333L581.45 88.28333L581.45 332.45L98.55 332.45L98.55 88.28333Z" clip-rule="nonzero"/></clipPath><path stroke="#000000" stroke-width="2.0" stroke-linecap="butt" stroke-opacity="0.0" clip-path="url(#id_0)" d="M180.0 332.0L151.0 332.0L151.0 91.0C151.0 89.89543 151.89543 89.0 153.0 89.0L178.0 89.0C179.10457 89.0 180.0 89.89543 180.0 91.0Z" fill-rule="nonzero"/><path fill="#4285f4" clip-path="url(#id_0)" d="M180.0 332.0L151.0 332.0L151.0 91.0C151.0 89.89543 151.89543 89.0 153.0 89.0L178.0 89.0C179.10457 89.0 180.0 89.89543 180.0 91.0Z" fill-rule="nonzero"/><path stroke="#000000" stroke-width="2.0" stroke-linecap="butt" stroke-opacity="0.0" clip-path="url(#id_0)" d="M324.0 332.0L295.0 332.0L295.0 101.0C295.0 99.89543 295.89542 99.0 297.0 99.0L322.0 99.0C323.10458 99.0 324.0 99.89543 324.0 101.0Z" fill-rule="nonzero"/><path fill="#4285f4" clip-path="url(#id_0)" d="M324.0 332.0L295.0 332.0L295.0 101.0C295.0 99.89543 295.89542 99.0 297.0 99.0L322.0 99.0C323.10458 99.0 324.0 99.89543 324.0 101.0Z" fill-rule="nonzero"/><path stroke="#000000" stroke-width="2.0" stroke-linecap="butt" stroke-opacity="0.0" clip-path="url(#id_0)" d="M468.0 332.0L439.0 332.0L439.0 94.0C439.0 92.89543 439.89542 92.0 441.0 92.0L466.0 92.0C467.10458 92.0 468.0 92.89543 468.0 94.0Z" fill-rule="nonzero"/><path fill="#4285f4" clip-path="url(#id_0)" d="M468.0 332.0L439.0 332.0L439.0 94.0C439.0 92.89543 439.89542 92.0 441.0 92.0L466.0 92.0C467.10458 92.0 468.0 92.89543 468.0 94.0Z" fill-rule="nonzero"/><path stroke="#000000" stroke-width="2.0" stroke-linecap="butt" stroke-opacity="0.0" clip-path="url(#id_0)" d="M211.0 332.0L182.0 332.0L182.0 102.0C182.0 100.89543 182.89543 100.0 184.0 100.0L209.0 100.0C210.10457 100.0 211.0 100.89543 211.0 102.0Z" fill-rule="nonzero"/><path fill="#ea4335" clip-path="url(#id_0)" d="M211.0 332.0L182.0 332.0L182.0 102.0C182.0 100.89543 182.89543 100.0 184.0 100.0L209.0 100.0C210.10457 100.0 211.0 100.89543 211.0 102.0Z" fill-rule="nonzero"/><path stroke="#000000" stroke-width="2.0" stroke-linecap="butt" stroke-opacity="0.0" clip-path="url(#id_0)" d="M355.0 332.0L326.0 332.0L326.0 118.0C326.0 116.89543 326.89542 116.0 328.0 116.0L353.0 116.0C354.10458 116.0 355.0 116.89543 355.0 118.0Z" fill-rule="nonzero"/><path fill="#ea4335" clip-path="url(#id_0)" d="M355.0 332.0L326.0 332.0L326.0 118.0C326.0 116.89543 326.89542 116.0 328.0 116.0L353.0 116.0C354.10458 116.0 355.0 116.89543 355.0 118.0Z" fill-rule="nonzero"/><path stroke="#000000" stroke-width="2.0" stroke-linecap="butt" stroke-opacity="0.0" clip-path="url(#id_0)" d="M499.0 332.0L470.0 332.0L470.0 110.0C470.0 108.89543 470.89542 108.0 472.0 108.0L497.0 108.0C498.10458 108.0 499.0 108.89543 499.0 110.0Z" fill-rule="nonzero"/><path fill="#ea4335" clip-path="url(#id_0)" d="M499.0 332.0L470.0 332.0L470.0 110.0C470.0 108.89543 470.89542 108.0 472.0 108.0L497.0 108.0C498.10458 108.0 499.0 108.89543 499.0 110.0Z" fill-rule="nonzero"/><path stroke="#000000" stroke-width="2.0" stroke-linecap="butt" stroke-opacity="0.0" clip-path="url(#id_0)" d="M242.0 332.0L213.0 332.0L213.0 95.0C213.0 93.89543 213.89543 93.0 215.0 93.0L240.0 93.0C241.10457 93.0 242.0 93.89543 242.0 95.0Z" fill-rule="nonzero"/><path fill="#fbbc04" clip-path="url(#id_0)" d="M242.0 332.0L213.0 332.0L213.0 95.0C213.0 93.89543 213.89543 93.0 215.0 93.0L240.0 93.0C241.10457 93.0 242.0 93.89543 242.0 95.0Z" fill-rule="nonzero"/><path stroke="#000000" stroke-width="2.0" stroke-linecap="butt" stroke-opacity="0.0" clip-path="url(#id_0)" d="M386.0 332.0L357.0 332.0L357.0 107.0C357.0 105.89543 357.89542 105.0 359.0 105.0L384.0 105.0C385.10458 105.0 386.0 105.89543 386.0 107.0Z" fill-rule="nonzero"/><path fill="#fbbc04" clip-path="url(#id_0)" d="M386.0 332.0L357.0 332.0L357.0 107.0C357.0 105.89543 357.89542 105.0 359.0 105.0L384.0 105.0C385.10458 105.0 386.0 105.89543 386.0 107.0Z" fill-rule="nonzero"/><path stroke="#000000" stroke-width="2.0" stroke-linecap="butt" stroke-opacity="0.0" clip-path="url(#id_0)" d="M530.0 332.0L501.0 332.0L501.0 99.0C501.0 97.89543 501.89542 97.0 503.0 97.0L528.0 97.0C529.10455 97.0 530.0 97.89543 530.0 99.0Z" fill-rule="nonzero"/><path fill="#fbbc04" clip-path="url(#id_0)" d="M530.0 332.0L501.0 332.0L501.0 99.0C501.0 97.89543 501.89542 97.0 503.0 97.0L528.0 97.0C529.10455 97.0 530.0 97.89543 530.0 99.0Z" fill-rule="nonzero"/><path fill="#000000" d="M26.440638 228.46042Q24.706263 228.46042 23.878138 227.5073Q23.190638 226.71042 23.190638 225.55417Q23.190638 224.27292 24.034388 223.46042Q24.862513 222.6323 26.346888 222.6323Q27.550013 222.6323 28.237513 222.99167Q28.925013 223.35104 29.315638 224.05417Q29.690638 224.74167 29.690638 225.55417Q29.690638 226.85104 28.862513 227.66354Q28.018763 228.46042 26.440638 228.46042ZM26.440638 227.3823Q27.628138 227.3823 28.221888 226.86667Q28.815638 226.33542 28.815638 225.55417Q28.815638 224.7573 28.221888 224.24167Q27.628138 223.72604 26.409388 223.72604Q25.253138 223.72604 24.659388 224.2573Q24.065638 224.77292 24.065638 225.55417Q24.065638 226.33542 24.659388 226.86667Q25.237513 227.3823 26.440638 227.3823ZM31.940638 221.0698L23.331263 221.0698L23.331263 220.11667L24.128138 220.11667Q23.659388 219.77292 23.425013 219.35104Q23.190638 218.91354 23.190638 218.30417Q23.190638 217.5073 23.596888 216.89792Q24.003138 216.28854 24.753138 215.99167Q25.503138 215.67917 26.393763 215.67917Q27.346888 215.67917 28.112513 216.02292Q28.878138 216.35104 29.284388 217.0073Q29.690638 217.66354 29.690638 218.3823Q29.690638 218.91354 29.471888 219.33542Q29.237513 219.7573 28.909388 220.02292L31.940638 220.02292L31.940638 221.0698ZM26.471888 220.11667Q27.675013 220.11667 28.253138 219.6323Q28.815638 219.14792 28.815638 218.46042Q28.815638 217.7573 28.221888 217.2573Q27.628138 216.7573 26.378138 216.7573Q25.190638 216.7573 24.612513 217.24167Q24.018763 217.72604 24.018763 218.41354Q24.018763 219.08542 24.643763 219.60104Q25.268763 220.11667 26.471888 220.11667ZM29.690638 214.86667L20.815638 212.3823L20.815638 211.53854L29.690638 214.02292L29.690638 214.86667ZM27.690638 211.49167L27.534388 210.46042Q28.159388 210.36667 28.487513 209.97604Q28.815638 209.5698 28.815638 208.83542Q28.815638 208.11667 28.534388 207.77292Q28.237513 207.41354 27.831263 207.41354Q27.471888 207.41354 27.268763 207.72604Q27.128138 207.9448 26.909388 208.80417Q26.612513 209.96042 26.409388 210.41354Q26.190638 210.85104 25.815638 211.08542Q25.440638 211.3198 24.971888 211.3198Q24.565638 211.3198 24.206263 211.1323Q23.846888 210.9448 23.612513 210.61667Q23.440638 210.36667 23.315638 209.9448Q23.190638 209.52292 23.190638 209.02292Q23.190638 208.30417 23.409388 207.7573Q23.612513 207.1948 23.971888 206.92917Q24.331263 206.66354 24.925013 206.5698L25.065638 207.60104Q24.596888 207.66354 24.331263 208.0073Q24.050013 208.33542 24.050013 208.96042Q24.050013 209.67917 24.300013 209.99167Q24.534388 210.30417 24.862513 210.30417Q25.065638 210.30417 25.221888 210.17917Q25.393763 210.03854 25.503138 209.77292Q25.565638 209.61667 25.768763 208.83542Q26.081263 207.71042 26.268763 207.27292Q26.456263 206.83542 26.815638 206.58542Q27.175013 206.33542 27.721888 206.33542Q28.253138 206.33542 28.721888 206.64792Q29.175013 206.9448 29.440638 207.52292Q29.690638 208.10104 29.690638 208.83542Q29.690638 210.05417 29.190638 210.6948Q28.675013 211.3198 27.690638 211.49167Z" fill-rule="nonzero"/><path fill="#000000" d="M86.05 332.21564Q86.05 330.6844 86.3625 329.7625Q86.675 328.825 87.28438 328.325Q87.90938 327.825 88.84688 327.825Q89.53438 327.825 90.05 328.10626Q90.58125 328.3875 90.925 328.91876Q91.26875 329.4344 91.45625 330.1844Q91.64375 330.9344 91.64375 332.21564Q91.64375 333.73126 91.33125 334.65314Q91.03438 335.575 90.40938 336.09064Q89.8 336.59064 88.84688 336.59064Q87.6125 336.59064 86.89375 335.7Q86.05 334.6375 86.05 332.21564ZM87.12813 332.21564Q87.12813 334.325 87.62813 335.02814Q88.12813 335.73126 88.84688 335.73126Q89.58125 335.73126 90.06563 335.02814Q90.56563 334.325 90.56563 332.21564Q90.56563 330.09064 90.06563 329.40314Q89.58125 328.7 88.83125 328.7Q88.1125 328.7 87.675 329.3094Q87.12813 330.09064 87.12813 332.21564Z" fill-rule="nonzero"/><path fill="#000000" d="M63.596874 286.60104L63.596874 287.61667L57.909374 287.61667Q57.909374 287.24167 58.034374 286.8823Q58.253124 286.30417 58.721874 285.74167Q59.20625 285.17917 60.1125 284.4448Q61.51875 283.28854 62.003124 282.61667Q62.503124 281.9448 62.503124 281.35104Q62.503124 280.72604 62.05 280.30417Q61.596874 279.86667 60.878124 279.86667Q60.1125 279.86667 59.659374 280.3198Q59.20625 280.77292 59.190624 281.58542L58.1125 281.47604Q58.221874 280.2573 58.940624 279.6323Q59.675 278.99167 60.909374 278.99167Q62.14375 278.99167 62.8625 279.67917Q63.58125 280.36667 63.58125 281.3823Q63.58125 281.89792 63.3625 282.39792Q63.159374 282.8823 62.659374 283.4448Q62.175 283.99167 61.05 284.9448Q60.096874 285.74167 59.815624 286.03854Q59.55 286.3198 59.378124 286.60104L63.596874 286.60104ZM65.05 285.36667L66.15938 285.27292Q66.28438 286.08542 66.72188 286.49167Q67.175 286.89792 67.81563 286.89792Q68.56563 286.89792 69.09688 286.3198Q69.62813 285.74167 69.62813 284.80417Q69.62813 283.89792 69.1125 283.3823Q68.6125 282.85104 67.78438 282.85104Q67.28438 282.85104 66.8625 283.08542Q66.45625 283.3198 66.22188 283.67917L65.2375 283.55417L66.06563 279.14792L70.34688 279.14792L70.34688 280.14792L66.90938 280.14792L66.45625 282.46042Q67.22188 281.91354 68.06563 281.91354Q69.19063 281.91354 69.95625 282.6948Q70.7375 283.47604 70.7375 284.71042Q70.7375 285.86667 70.06563 286.72604Q69.2375 287.7573 67.81563 287.7573Q66.64375 287.7573 65.89375 287.10104Q65.15938 286.4448 65.05 285.36667ZM72.05 283.3823Q72.05 281.85104 72.3625 280.92917Q72.675 279.99167 73.28438 279.49167Q73.90938 278.99167 74.84688 278.99167Q75.53438 278.99167 76.05 279.27292Q76.58125 279.55417 76.925 280.08542Q77.26875 280.60104 77.45625 281.35104Q77.64375 282.10104 77.64375 283.3823Q77.64375 284.89792 77.33125 285.8198Q77.03438 286.74167 76.40938 287.2573Q75.8 287.7573 74.84688 287.7573Q73.6125 287.7573 72.89375 286.86667Q72.05 285.80417 72.05 283.3823ZM73.12813 283.3823Q73.12813 285.49167 73.62813 286.1948Q74.12813 286.89792 74.84688 286.89792Q75.58125 286.89792 76.06563 286.1948Q76.56563 285.49167 76.56563 283.3823Q76.56563 281.2573 76.06563 280.5698Q75.58125 279.86667 74.83125 279.86667Q74.1125 279.86667 73.675 280.47604Q73.12813 281.2573 73.12813 283.3823ZM79.05 283.3823Q79.05 281.85104 79.3625 280.92917Q79.675 279.99167 80.28438 279.49167Q80.90938 278.99167 81.84688 278.99167Q82.53438 278.99167 83.05 279.27292Q83.58125 279.55417 83.925 280.08542Q84.26875 280.60104 84.45625 281.35104Q84.64375 282.10104 84.64375 283.3823Q84.64375 284.89792 84.33125 285.8198Q84.03438 286.74167 83.40938 287.2573Q82.8 287.7573 81.84688 287.7573Q80.6125 287.7573 79.89375 286.86667Q79.05 285.80417 79.05 283.3823ZM80.12813 283.3823Q80.12813 285.49167 80.62813 286.1948Q81.12813 286.89792 81.84688 286.89792Q82.58125 286.89792 83.06563 286.1948Q83.56563 285.49167 83.56563 283.3823Q83.56563 281.2573 83.06563 280.5698Q82.58125 279.86667 81.83125 279.86667Q81.1125 279.86667 80.675 280.47604Q80.12813 281.2573 80.12813 283.3823ZM86.05 283.3823Q86.05 281.85104 86.3625 280.92917Q86.675 279.99167 87.28438 279.49167Q87.90938 278.99167 88.84688 278.99167Q89.53438 278.99167 90.05 279.27292Q90.58125 279.55417 90.925 280.08542Q91.26875 280.60104 91.45625 281.35104Q91.64375 282.10104 91.64375 283.3823Q91.64375 284.89792 91.33125 285.8198Q91.03438 286.74167 90.40938 287.2573Q89.8 287.7573 88.84688 287.7573Q87.6125 287.7573 86.89375 286.86667Q86.05 285.80417 86.05 283.3823ZM87.12813 283.3823Q87.12813 285.49167 87.62813 286.1948Q88.12813 286.89792 88.84688 286.89792Q89.58125 286.89792 90.06563 286.1948Q90.56563 285.49167 90.56563 283.3823Q90.56563 281.2573 90.06563 280.5698Q89.58125 279.86667 88.83125 279.86667Q88.1125 279.86667 87.675 280.47604Q87.12813 281.2573 87.12813 283.3823Z" fill-rule="nonzero"/><path fill="#000000" d="M58.05 236.53334L59.159374 236.43959Q59.284374 237.25209 59.721874 237.65834Q60.175 238.06459 60.815624 238.06459Q61.565624 238.06459 62.096874 237.48647Q62.628124 236.90834 62.628124 235.97084Q62.628124 235.06459 62.1125 234.54897Q61.6125 234.01772 60.784374 234.01772Q60.284374 234.01772 59.8625 234.25209Q59.45625 234.48647 59.221874 234.84584L58.2375 234.72084L59.065624 230.31459L63.346874 230.31459L63.346874 231.31459L59.909374 231.31459L59.45625 233.62709Q60.221874 233.08022 61.065624 233.08022Q62.190624 233.08022 62.95625 233.86147Q63.7375 234.64272 63.7375 235.87709Q63.7375 237.03334 63.065624 237.89272Q62.2375 238.92397 60.815624 238.92397Q59.64375 238.92397 58.89375 238.26772Q58.159374 237.61147 58.05 236.53334ZM65.05 234.54897Q65.05 233.01772 65.3625 232.09584Q65.675 231.15834 66.28438 230.65834Q66.90938 230.15834 67.84688 230.15834Q68.53438 230.15834 69.05 230.43959Q69.58125 230.72084 69.925 231.25209Q70.26875 231.76772 70.45625 232.51772Q70.64375 233.26772 70.64375 234.54897Q70.64375 236.06459 70.33125 236.98647Q70.03438 237.90834 69.40938 238.42397Q68.8 238.92397 67.84688 238.92397Q66.6125 238.92397 65.89375 238.03334Q65.05 236.97084 65.05 234.54897ZM66.12813 234.54897Q66.12813 236.65834 66.62813 237.36147Q67.12813 238.06459 67.84688 238.06459Q68.58125 238.06459 69.06563 237.36147Q69.56563 236.65834 69.56563 234.54897Q69.56563 232.42397 69.06563 231.73647Q68.58125 231.03334 67.83125 231.03334Q67.1125 231.03334 66.675 231.64272Q66.12813 232.42397 66.12813 234.54897ZM72.05 234.54897Q72.05 233.01772 72.3625 232.09584Q72.675 231.15834 73.28438 230.65834Q73.90938 230.15834 74.84688 230.15834Q75.53438 230.15834 76.05 230.43959Q76.58125 230.72084 76.925 231.25209Q77.26875 231.76772 77.45625 232.51772Q77.64375 233.26772 77.64375 234.54897Q77.64375 236.06459 77.33125 236.98647Q77.03438 237.90834 76.40938 238.42397Q75.8 238.92397 74.84688 238.92397Q73.6125 238.92397 72.89375 238.03334Q72.05 236.97084 72.05 234.54897ZM73.12813 234.54897Q73.12813 236.65834 73.62813 237.36147Q74.12813 238.06459 74.84688 238.06459Q75.58125 238.06459 76.06563 237.36147Q76.56563 236.65834 76.56563 234.54897Q76.56563 232.42397 76.06563 231.73647Q75.58125 231.03334 74.83125 231.03334Q74.1125 231.03334 73.675 231.64272Q73.12813 232.42397 73.12813 234.54897ZM79.05 234.54897Q79.05 233.01772 79.3625 232.09584Q79.675 231.15834 80.28438 230.65834Q80.90938 230.15834 81.84688 230.15834Q82.53438 230.15834 83.05 230.43959Q83.58125 230.72084 83.925 231.25209Q84.26875 231.76772 84.45625 232.51772Q84.64375 233.26772 84.64375 234.54897Q84.64375 236.06459 84.33125 236.98647Q84.03438 237.90834 83.40938 238.42397Q82.8 238.92397 81.84688 238.92397Q80.6125 238.92397 79.89375 238.03334Q79.05 236.97084 79.05 234.54897ZM80.12813 234.54897Q80.12813 236.65834 80.62813 237.36147Q81.12813 238.06459 81.84688 238.06459Q82.58125 238.06459 83.06563 237.36147Q83.56563 236.65834 83.56563 234.54897Q83.56563 232.42397 83.06563 231.73647Q82.58125 231.03334 81.83125 231.03334Q81.1125 231.03334 80.675 231.64272Q80.12813 232.42397 80.12813 234.54897ZM86.05 234.54897Q86.05 233.01772 86.3625 232.09584Q86.675 231.15834 87.28438 230.65834Q87.90938 230.15834 88.84688 230.15834Q89.53438 230.15834 90.05 230.43959Q90.58125 230.72084 90.925 231.25209Q91.26875 231.76772 91.45625 232.51772Q91.64375 233.26772 91.64375 234.54897Q91.64375 236.06459 91.33125 236.98647Q91.03438 237.90834 90.40938 238.42397Q89.8 238.92397 88.84688 238.92397Q87.6125 238.92397 86.89375 238.03334Q86.05 236.97084 86.05 234.54897ZM87.12813 234.54897Q87.12813 236.65834 87.62813 237.36147Q88.12813 238.06459 88.84688 238.06459Q89.58125 238.06459 90.06563 237.36147Q90.56563 236.65834 90.56563 234.54897Q90.56563 232.42397 90.06563 231.73647Q89.58125 231.03334 88.83125 231.03334Q88.1125 231.03334 87.675 231.64272Q87.12813 232.42397 87.12813 234.54897Z" fill-rule="nonzero"/><path fill="#000000" d="M58.1125 182.48125L58.1125 181.46562L63.675 181.46562L63.675 182.29375Q62.8625 183.16875 62.05 184.62187Q61.253124 186.05937 60.815624 187.59062Q60.4875 188.66875 60.409374 189.95L59.315624 189.95Q59.33125 188.93437 59.70625 187.49687Q60.096874 186.05937 60.8 184.73125Q61.51875 183.40312 62.33125 182.48125L58.1125 182.48125ZM65.05 187.7L66.15938 187.60625Q66.28438 188.41875 66.72188 188.825Q67.175 189.23125 67.81563 189.23125Q68.56563 189.23125 69.09688 188.65312Q69.62813 188.075 69.62813 187.1375Q69.62813 186.23125 69.1125 185.71562Q68.6125 185.18437 67.78438 185.18437Q67.28438 185.18437 66.8625 185.41875Q66.45625 185.65312 66.22188 186.0125L65.2375 185.8875L66.06563 181.48125L70.34688 181.48125L70.34688 182.48125L66.90938 182.48125L66.45625 184.79375Q67.22188 184.24687 68.06563 184.24687Q69.19063 184.24687 69.95625 185.02812Q70.7375 185.80937 70.7375 187.04375Q70.7375 188.2 70.06563 189.05937Q69.2375 190.09062 67.81563 190.09062Q66.64375 190.09062 65.89375 189.43437Q65.15938 188.77812 65.05 187.7ZM72.05 185.71562Q72.05 184.18437 72.3625 183.2625Q72.675 182.325 73.28438 181.825Q73.90938 181.325 74.84688 181.325Q75.53438 181.325 76.05 181.60625Q76.58125 181.8875 76.925 182.41875Q77.26875 182.93437 77.45625 183.68437Q77.64375 184.43437 77.64375 185.71562Q77.64375 187.23125 77.33125 188.15312Q77.03438 189.075 76.40938 189.59062Q75.8 190.09062 74.84688 190.09062Q73.6125 190.09062 72.89375 189.2Q72.05 188.1375 72.05 185.71562ZM73.12813 185.71562Q73.12813 187.825 73.62813 188.52812Q74.12813 189.23125 74.84688 189.23125Q75.58125 189.23125 76.06563 188.52812Q76.56563 187.825 76.56563 185.71562Q76.56563 183.59062 76.06563 182.90312Q75.58125 182.2 74.83125 182.2Q74.1125 182.2 73.675 182.80937Q73.12813 183.59062 73.12813 185.71562ZM79.05 185.71562Q79.05 184.18437 79.3625 183.2625Q79.675 182.325 80.28438 181.825Q80.90938 181.325 81.84688 181.325Q82.53438 181.325 83.05 181.60625Q83.58125 181.8875 83.925 182.41875Q84.26875 182.93437 84.45625 183.68437Q84.64375 184.43437 84.64375 185.71562Q84.64375 187.23125 84.33125 188.15312Q84.03438 189.075 83.40938 189.59062Q82.8 190.09062 81.84688 190.09062Q80.6125 190.09062 79.89375 189.2Q79.05 188.1375 79.05 185.71562ZM80.12813 185.71562Q80.12813 187.825 80.62813 188.52812Q81.12813 189.23125 81.84688 189.23125Q82.58125 189.23125 83.06563 188.52812Q83.56563 187.825 83.56563 185.71562Q83.56563 183.59062 83.06563 182.90312Q82.58125 182.2 81.83125 182.2Q81.1125 182.2 80.675 182.80937Q80.12813 183.59062 80.12813 185.71562ZM86.05 185.71562Q86.05 184.18437 86.3625 183.2625Q86.675 182.325 87.28438 181.825Q87.90938 181.325 88.84688 181.325Q89.53438 181.325 90.05 181.60625Q90.58125 181.8875 90.925 182.41875Q91.26875 182.93437 91.45625 183.68437Q91.64375 184.43437 91.64375 185.71562Q91.64375 187.23125 91.33125 188.15312Q91.03438 189.075 90.40938 189.59062Q89.8 190.09062 88.84688 190.09062Q87.6125 190.09062 86.89375 189.2Q86.05 188.1375 86.05 185.71562ZM87.12813 185.71562Q87.12813 187.825 87.62813 188.52812Q88.12813 189.23125 88.84688 189.23125Q89.58125 189.23125 90.06563 188.52812Q90.56563 187.825 90.56563 185.71562Q90.56563 183.59062 90.06563 182.90312Q89.58125 182.2 88.83125 182.2Q88.1125 182.2 87.675 182.80937Q87.12813 183.59062 87.12813 185.71562Z" fill-rule="nonzero"/><path fill="#000000" d="M55.01875 141.11667L53.971874 141.11667L53.971874 134.39792Q53.58125 134.7573 52.95625 135.1323Q52.346874 135.49167 51.8625 135.66354L51.8625 134.64792Q52.7375 134.22604 53.39375 133.64792Q54.065624 133.05417 54.346874 132.49167L55.01875 132.49167L55.01875 141.11667ZM58.05 136.8823Q58.05 135.35104 58.3625 134.42917Q58.675 133.49167 59.284374 132.99167Q59.909374 132.49167 60.846874 132.49167Q61.534374 132.49167 62.05 132.77292Q62.58125 133.05417 62.925 133.58542Q63.26875 134.10104 63.45625 134.85104Q63.64375 135.60104 63.64375 136.8823Q63.64375 138.39792 63.33125 139.3198Q63.034374 140.24167 62.409374 140.7573Q61.8 141.2573 60.846874 141.2573Q59.6125 141.2573 58.89375 140.36667Q58.05 139.30417 58.05 136.8823ZM59.128124 136.8823Q59.128124 138.99167 59.628124 139.6948Q60.128124 140.39792 60.846874 140.39792Q61.58125 140.39792 62.065624 139.6948Q62.565624 138.99167 62.565624 136.8823Q62.565624 134.7573 62.065624 134.0698Q61.58125 133.36667 60.83125 133.36667Q60.1125 133.36667 59.675 133.97604Q59.128124 134.7573 59.128124 136.8823ZM65.05 136.8823Q65.05 135.35104 65.3625 134.42917Q65.675 133.49167 66.28438 132.99167Q66.90938 132.49167 67.84688 132.49167Q68.53438 132.49167 69.05 132.77292Q69.58125 133.05417 69.925 133.58542Q70.26875 134.10104 70.45625 134.85104Q70.64375 135.60104 70.64375 136.8823Q70.64375 138.39792 70.33125 139.3198Q70.03438 140.24167 69.40938 140.7573Q68.8 141.2573 67.84688 141.2573Q66.6125 141.2573 65.89375 140.36667Q65.05 139.30417 65.05 136.8823ZM66.12813 136.8823Q66.12813 138.99167 66.62813 139.6948Q67.12813 140.39792 67.84688 140.39792Q68.58125 140.39792 69.06563 139.6948Q69.56563 138.99167 69.56563 136.8823Q69.56563 134.7573 69.06563 134.0698Q68.58125 133.36667 67.83125 133.36667Q67.1125 133.36667 66.675 133.97604Q66.12813 134.7573 66.12813 136.8823ZM72.05 136.8823Q72.05 135.35104 72.3625 134.42917Q72.675 133.49167 73.28438 132.99167Q73.90938 132.49167 74.84688 132.49167Q75.53438 132.49167 76.05 132.77292Q76.58125 133.05417 76.925 133.58542Q77.26875 134.10104 77.45625 134.85104Q77.64375 135.60104 77.64375 136.8823Q77.64375 138.39792 77.33125 139.3198Q77.03438 140.24167 76.40938 140.7573Q75.8 141.2573 74.84688 141.2573Q73.6125 141.2573 72.89375 140.36667Q72.05 139.30417 72.05 136.8823ZM73.12813 136.8823Q73.12813 138.99167 73.62813 139.6948Q74.12813 140.39792 74.84688 140.39792Q75.58125 140.39792 76.06563 139.6948Q76.56563 138.99167 76.56563 136.8823Q76.56563 134.7573 76.06563 134.0698Q75.58125 133.36667 74.83125 133.36667Q74.1125 133.36667 73.675 133.97604Q73.12813 134.7573 73.12813 136.8823ZM79.05 136.8823Q79.05 135.35104 79.3625 134.42917Q79.675 133.49167 80.28438 132.99167Q80.90938 132.49167 81.84688 132.49167Q82.53438 132.49167 83.05 132.77292Q83.58125 133.05417 83.925 133.58542Q84.26875 134.10104 84.45625 134.85104Q84.64375 135.60104 84.64375 136.8823Q84.64375 138.39792 84.33125 139.3198Q84.03438 140.24167 83.40938 140.7573Q82.8 141.2573 81.84688 141.2573Q80.6125 141.2573 79.89375 140.36667Q79.05 139.30417 79.05 136.8823ZM80.12813 136.8823Q80.12813 138.99167 80.62813 139.6948Q81.12813 140.39792 81.84688 140.39792Q82.58125 140.39792 83.06563 139.6948Q83.56563 138.99167 83.56563 136.8823Q83.56563 134.7573 83.06563 134.0698Q82.58125 133.36667 81.83125 133.36667Q81.1125 133.36667 80.675 133.97604Q80.12813 134.7573 80.12813 136.8823ZM86.05 136.8823Q86.05 135.35104 86.3625 134.42917Q86.675 133.49167 87.28438 132.99167Q87.90938 132.49167 88.84688 132.49167Q89.53438 132.49167 90.05 132.77292Q90.58125 133.05417 90.925 133.58542Q91.26875 134.10104 91.45625 134.85104Q91.64375 135.60104 91.64375 136.8823Q91.64375 138.39792 91.33125 139.3198Q91.03438 140.24167 90.40938 140.7573Q89.8 141.2573 88.84688 141.2573Q87.6125 141.2573 86.89375 140.36667Q86.05 139.30417 86.05 136.8823ZM87.12813 136.8823Q87.12813 138.99167 87.62813 139.6948Q88.12813 140.39792 88.84688 140.39792Q89.58125 140.39792 90.06563 139.6948Q90.56563 138.99167 90.56563 136.8823Q90.56563 134.7573 90.06563 134.0698Q89.58125 133.36667 88.83125 133.36667Q88.1125 133.36667 87.675 133.97604Q87.12813 134.7573 87.12813 136.8823Z" fill-rule="nonzero"/><path fill="#000000" d="M55.01875 92.28333L53.971874 92.28333L53.971874 85.56458Q53.58125 85.92396 52.95625 86.29896Q52.346874 86.65833 51.8625 86.83021L51.8625 85.81458Q52.7375 85.39271 53.39375 84.81458Q54.065624 84.22083 54.346874 83.65833L55.01875 83.65833L55.01875 92.28333ZM63.596874 91.26771L63.596874 92.28333L57.909374 92.28333Q57.909374 91.90833 58.034374 91.54896Q58.253124 90.97083 58.721874 90.40833Q59.20625 89.84583 60.1125 89.11146Q61.51875 87.95521 62.003124 87.28333Q62.503124 86.61146 62.503124 86.01771Q62.503124 85.39271 62.05 84.97083Q61.596874 84.53333 60.878124 84.53333Q60.1125 84.53333 59.659374 84.98646Q59.20625 85.43958 59.190624 86.25208L58.1125 86.14271Q58.221874 84.92396 58.940624 84.29896Q59.675 83.65833 60.909374 83.65833Q62.14375 83.65833 62.8625 84.34583Q63.58125 85.03333 63.58125 86.04896Q63.58125 86.56458 63.3625 87.06458Q63.159374 87.54896 62.659374 88.11146Q62.175 88.65833 61.05 89.61146Q60.096874 90.40833 59.815624 90.70521Q59.55 90.98646 59.378124 91.26771L63.596874 91.26771ZM65.05 90.03333L66.15938 89.93958Q66.28438 90.75208 66.72188 91.15833Q67.175 91.56458 67.81563 91.56458Q68.56563 91.56458 69.09688 90.98646Q69.62813 90.40833 69.62813 89.47083Q69.62813 88.56458 69.1125 88.04896Q68.6125 87.51771 67.78438 87.51771Q67.28438 87.51771 66.8625 87.75208Q66.45625 87.98646 66.22188 88.34583L65.2375 88.22083L66.06563 83.81458L70.34688 83.81458L70.34688 84.81458L66.90938 84.81458L66.45625 87.12708Q67.22188 86.58021 68.06563 86.58021Q69.19063 86.58021 69.95625 87.36146Q70.7375 88.14271 70.7375 89.37708Q70.7375 90.53333 70.06563 91.39271Q69.2375 92.42396 67.81563 92.42396Q66.64375 92.42396 65.89375 91.76771Q65.15938 91.11146 65.05 90.03333ZM72.05 88.04896Q72.05 86.51771 72.3625 85.59583Q72.675 84.65833 73.28438 84.15833Q73.90938 83.65833 74.84688 83.65833Q75.53438 83.65833 76.05 83.93958Q76.58125 84.22083 76.925 84.75208Q77.26875 85.26771 77.45625 86.01771Q77.64375 86.76771 77.64375 88.04896Q77.64375 89.56458 77.33125 90.48646Q77.03438 91.40833 76.40938 91.92396Q75.8 92.42396 74.84688 92.42396Q73.6125 92.42396 72.89375 91.53333Q72.05 90.47083 72.05 88.04896ZM73.12813 88.04896Q73.12813 90.15833 73.62813 90.86146Q74.12813 91.56458 74.84688 91.56458Q75.58125 91.56458 76.06563 90.86146Q76.56563 90.15833 76.56563 88.04896Q76.56563 85.92396 76.06563 85.23646Q75.58125 84.53333 74.83125 84.53333Q74.1125 84.53333 73.675 85.14271Q73.12813 85.92396 73.12813 88.04896ZM79.05 88.04896Q79.05 86.51771 79.3625 85.59583Q79.675 84.65833 80.28438 84.15833Q80.90938 83.65833 81.84688 83.65833Q82.53438 83.65833 83.05 83.93958Q83.58125 84.22083 83.925 84.75208Q84.26875 85.26771 84.45625 86.01771Q84.64375 86.76771 84.64375 88.04896Q84.64375 89.56458 84.33125 90.48646Q84.03438 91.40833 83.40938 91.92396Q82.8 92.42396 81.84688 92.42396Q80.6125 92.42396 79.89375 91.53333Q79.05 90.47083 79.05 88.04896ZM80.12813 88.04896Q80.12813 90.15833 80.62813 90.86146Q81.12813 91.56458 81.84688 91.56458Q82.58125 91.56458 83.06563 90.86146Q83.56563 90.15833 83.56563 88.04896Q83.56563 85.92396 83.06563 85.23646Q82.58125 84.53333 81.83125 84.53333Q81.1125 84.53333 80.675 85.14271Q80.12813 85.92396 80.12813 88.04896ZM86.05 88.04896Q86.05 86.51771 86.3625 85.59583Q86.675 84.65833 87.28438 84.15833Q87.90938 83.65833 88.84688 83.65833Q89.53438 83.65833 90.05 83.93958Q90.58125 84.22083 90.925 84.75208Q91.26875 85.26771 91.45625 86.01771Q91.64375 86.76771 91.64375 88.04896Q91.64375 89.56458 91.33125 90.48646Q91.03438 91.40833 90.40938 91.92396Q89.8 92.42396 88.84688 92.42396Q87.6125 92.42396 86.89375 91.53333Q86.05 90.47083 86.05 88.04896ZM87.12813 88.04896Q87.12813 90.15833 87.62813 90.86146Q88.12813 91.56458 88.84688 91.56458Q89.58125 91.56458 90.06563 90.86146Q90.56563 90.15833 90.56563 88.04896Q90.56563 85.92396 90.06563 85.23646Q89.58125 84.53333 88.83125 84.53333Q88.1125 84.53333 87.675 85.14271Q87.12813 85.92396 87.12813 88.04896Z" fill-rule="nonzero"/><path fill="#000000" d="M188.80388 346.075L188.80388 345.075L192.42888 345.0594L192.42888 348.2469Q191.60075 348.91876 190.71013 349.2625Q189.8195 349.59064 188.882 349.59064Q187.61638 349.59064 186.5695 349.0594Q185.53825 348.5125 185.007 347.4969Q184.49138 346.46564 184.49138 345.2Q184.49138 343.9344 185.007 342.85626Q185.53825 341.7625 186.52263 341.2469Q187.507 340.71564 188.78825 340.71564Q189.72575 340.71564 190.47575 341.0125Q191.22575 341.3094 191.64763 341.85626Q192.08513 342.3875 192.30388 343.2625L191.28825 343.54376Q191.08513 342.8875 190.78825 342.5125Q190.507 342.1375 189.97575 341.91876Q189.4445 341.6844 188.80388 341.6844Q188.02263 341.6844 187.4445 341.91876Q186.882 342.15314 186.52263 342.54376Q186.17888 342.9344 185.99138 343.40314Q185.66325 344.2 185.66325 345.1219Q185.66325 346.27814 186.05388 347.0594Q186.46013 347.825 187.21013 348.2Q187.96013 348.575 188.8195 348.575Q189.55388 348.575 190.257 348.29376Q190.96013 347.9969 191.3195 347.6844L191.3195 346.075L188.80388 346.075ZM193.80388 349.45L193.80388 340.85626L200.007 340.85626L200.007 341.8719L194.9445 341.8719L194.9445 344.4969L199.6945 344.4969L199.6945 345.5125L194.9445 345.5125L194.9445 348.4344L200.21013 348.4344L200.21013 349.45L193.80388 349.45ZM203.96013 349.45L203.96013 341.8719L201.132 341.8719L201.132 340.85626L207.9445 340.85626L207.9445 341.8719L205.10075 341.8719L205.10075 349.45L203.96013 349.45Z" fill-rule="nonzero"/><path fill="#000000" d="M329.04688 346.6844L330.10938 346.59064Q330.1875 347.2469 330.46875 347.65314Q330.75 348.0594 331.32812 348.325Q331.92188 348.575 332.65625 348.575Q333.29688 348.575 333.79688 348.3875Q334.29688 348.1844 334.53125 347.85626Q334.78125 347.5125 334.78125 347.1219Q334.78125 346.71564 334.54688 346.41876Q334.3125 346.10626 333.78125 345.90314Q333.42188 345.7625 332.23438 345.48126Q331.0625 345.2 330.59375 344.95Q329.96875 344.6219 329.67188 344.15314Q329.375 343.66876 329.375 343.075Q329.375 342.4344 329.73438 341.8719Q330.10938 341.29376 330.8125 341.0125Q331.53125 340.71564 332.39062 340.71564Q333.34375 340.71564 334.07812 341.02814Q334.8125 341.325 335.20312 341.9344Q335.59375 342.52814 335.625 343.27814L334.53125 343.35626Q334.4375 342.54376 333.92188 342.1375Q333.42188 341.71564 332.4375 341.71564Q331.40625 341.71564 330.9375 342.09064Q330.46875 342.46564 330.46875 342.9969Q330.46875 343.46564 330.79688 343.7625Q331.125 344.0594 332.5 344.3719Q333.89062 344.6844 334.40625 344.91876Q335.15625 345.27814 335.51562 345.8094Q335.875 346.325 335.875 347.02814Q335.875 347.71564 335.48438 348.325Q335.09375 348.91876 334.35938 349.2625Q333.625 349.59064 332.70312 349.59064Q331.53125 349.59064 330.73438 349.2625Q329.95312 348.91876 329.5 348.23126Q329.0625 347.54376 329.04688 346.6844ZM337.45312 349.45L337.45312 340.85626L343.65625 340.85626L343.65625 341.8719L338.59375 341.8719L338.59375 344.4969L343.34375 344.4969L343.34375 345.5125L338.59375 345.5125L338.59375 348.4344L343.85938 348.4344L343.85938 349.45L337.45312 349.45ZM347.60938 349.45L347.60938 341.8719L344.78125 341.8719L344.78125 340.85626L351.59375 340.85626L351.59375 341.8719L348.75 341.8719L348.75 349.45L347.60938 349.45Z" fill-rule="nonzero"/><path fill="#000000" d="M461.6024 346.075L461.6024 345.075L465.2274 345.0594L465.2274 348.2469Q464.39926 348.91876 463.50864 349.2625Q462.618 349.59064 461.6805 349.59064Q460.4149 349.59064 459.368 349.0594Q458.33676 348.5125 457.8055 347.4969Q457.2899 346.46564 457.2899 345.2Q457.2899 343.9344 457.8055 342.85626Q458.33676 341.7625 459.32114 341.2469Q460.3055 340.71564 461.58676 340.71564Q462.52426 340.71564 463.27426 341.0125Q464.02426 341.3094 464.44614 341.85626Q464.88364 342.3875 465.1024 343.2625L464.08676 343.54376Q463.88364 342.8875 463.58676 342.5125Q463.3055 342.1375 462.77426 341.91876Q462.243 341.6844 461.6024 341.6844Q460.82114 341.6844 460.243 341.91876Q459.6805 342.15314 459.32114 342.54376Q458.9774 342.9344 458.7899 343.40314Q458.46176 344.2 458.46176 345.1219Q458.46176 346.27814 458.8524 347.0594Q459.25864 347.825 460.00864 348.2Q460.75864 348.575 461.618 348.575Q462.3524 348.575 463.0555 348.29376Q463.75864 347.9969 464.118 347.6844L464.118 346.075L461.6024 346.075ZM466.6024 349.45L466.6024 340.85626L472.8055 340.85626L472.8055 341.8719L467.743 341.8719L467.743 344.4969L472.493 344.4969L472.493 345.5125L467.743 345.5125L467.743 348.4344L473.00864 348.4344L473.00864 349.45L466.6024 349.45ZM476.75864 349.45L476.75864 341.8719L473.9305 341.8719L473.9305 340.85626L480.743 340.85626L480.743 341.8719L477.89926 341.8719L477.89926 349.45L476.75864 349.45ZM486.3524 348.4344Q485.83676 349.0125 485.21176 349.3094Q484.6024 349.59064 483.88364 349.59064Q482.57114 349.59064 481.7899 348.7Q481.1649 347.98126 481.1649 347.075Q481.1649 346.27814 481.6805 345.6375Q482.19614 344.9969 483.21176 344.5125Q482.63364 343.84064 482.4305 343.4344Q482.243 343.0125 482.243 342.6219Q482.243 341.85626 482.8524 341.29376Q483.46176 340.71564 484.38364 340.71564Q485.25864 340.71564 485.8055 341.2625Q486.368 341.79376 486.368 342.54376Q486.368 343.77814 484.75864 344.6375L486.2899 346.60626Q486.5555 346.09064 486.69614 345.40314L487.8055 345.6375Q487.52426 346.7625 487.0399 347.4969Q487.63364 348.27814 488.38364 348.8094L487.6649 349.65314Q487.02426 349.23126 486.3524 348.4344ZM484.21176 343.96564Q484.89926 343.5594 485.08676 343.2625Q485.2899 342.95 485.2899 342.575Q485.2899 342.1375 485.00864 341.85626Q484.743 341.575 484.32114 341.575Q483.89926 341.575 483.6024 341.85626Q483.32114 342.1375 483.32114 342.52814Q483.32114 342.73126 483.4305 342.95Q483.5399 343.16876 483.743 343.41876L484.21176 343.96564ZM485.69614 347.60626L483.75864 345.2Q482.89926 345.71564 482.6024 346.15314Q482.3055 346.59064 482.3055 347.0125Q482.3055 347.54376 482.71176 348.10626Q483.13364 348.66876 483.89926 348.66876Q484.368 348.66876 484.868 348.3719Q485.38364 348.075 485.69614 347.60626ZM489.19614 346.6844L490.25864 346.59064Q490.33676 347.2469 490.618 347.65314Q490.89926 348.0594 491.4774 348.325Q492.07114 348.575 492.8055 348.575Q493.44614 348.575 493.94614 348.3875Q494.44614 348.1844 494.6805 347.85626Q494.9305 347.5125 494.9305 347.1219Q494.9305 346.71564 494.69614 346.41876Q494.46176 346.10626 493.9305 345.90314Q493.57114 345.7625 492.38364 345.48126Q491.21176 345.2 490.743 344.95Q490.118 344.6219 489.82114 344.15314Q489.52426 343.66876 489.52426 343.075Q489.52426 342.4344 489.88364 341.8719Q490.25864 341.29376 490.96176 341.0125Q491.6805 340.71564 492.5399 340.71564Q493.493 340.71564 494.2274 341.02814Q494.96176 341.325 495.3524 341.9344Q495.743 342.52814 495.77426 343.27814L494.6805 343.35626Q494.58676 342.54376 494.07114 342.1375Q493.57114 341.71564 492.58676 341.71564Q491.5555 341.71564 491.08676 342.09064Q490.618 342.46564 490.618 342.9969Q490.618 343.46564 490.94614 343.7625Q491.27426 344.0594 492.64926 344.3719Q494.0399 344.6844 494.5555 344.91876Q495.3055 345.27814 495.6649 345.8094Q496.02426 346.325 496.02426 347.02814Q496.02426 347.71564 495.63364 348.325Q495.243 348.91876 494.50864 349.2625Q493.77426 349.59064 492.8524 349.59064Q491.6805 349.59064 490.88364 349.2625Q490.1024 348.91876 489.64926 348.23126Q489.21176 347.54376 489.19614 346.6844ZM497.6024 349.45L497.6024 340.85626L503.8055 340.85626L503.8055 341.8719L498.743 341.8719L498.743 344.4969L503.493 344.4969L503.493 345.5125L498.743 345.5125L498.743 348.4344L504.00864 348.4344L504.00864 349.45L497.6024 349.45ZM507.75864 349.45L507.75864 341.8719L504.9305 341.8719L504.9305 340.85626L511.743 340.85626L511.743 341.8719L508.89926 341.8719L508.89926 349.45L507.75864 349.45Z" fill-rule="nonzero"/><path fill="#4285f4" d="M202.5 56.916668C202.5 56.364384 202.94771 55.916668 203.5 55.916668L213.5 55.916668C214.05229 55.916668 214.5 56.364384 214.5 56.916668L214.5 66.916664C214.5 67.46895 214.05229 67.916664 213.5 67.916664L203.5 67.916664C202.94771 67.916664 202.5 67.46895 202.5 66.916664Z" fill-rule="nonzero"/><path fill="#1a1a1a" d="M223.4375 65.916664L223.4375 57.322914L227.25 57.322914Q228.40625 57.322914 229.0 57.55729Q229.59375 57.791664 229.95312 58.385414Q230.3125 58.96354 230.3125 59.666664Q230.3125 60.58854 229.71875 61.21354Q229.125 61.83854 227.89062 62.010414Q228.34375 62.229164 228.57812 62.43229Q229.07812 62.885414 229.51562 63.572914L231.01562 65.916664L229.57812 65.916664L228.45312 64.135414Q227.95312 63.354164 227.625 62.947914Q227.3125 62.541664 227.04688 62.385414Q226.79688 62.21354 226.53125 62.135414Q226.34375 62.104164 225.90625 62.104164L224.57812 62.104164L224.57812 65.916664L223.4375 65.916664ZM224.57812 61.11979L227.03125 61.11979Q227.79688 61.11979 228.23438 60.96354Q228.6875 60.791664 228.90625 60.447914Q229.14062 60.08854 229.14062 59.666664Q229.14062 59.05729 228.6875 58.666664Q228.25 58.27604 227.29688 58.27604L224.57812 58.27604L224.57812 61.11979ZM232.45312 65.916664L232.45312 57.322914L238.65625 57.322914L238.65625 58.33854L233.59375 58.33854L233.59375 60.96354L238.34375 60.96354L238.34375 61.979164L233.59375 61.979164L233.59375 64.90104L238.85938 64.90104L238.85938 65.916664L232.45312 65.916664ZM240.42188 65.916664L240.42188 57.322914L243.39062 57.322914Q244.39062 57.322914 244.92188 57.447914Q245.65625 57.61979 246.17188 58.05729Q246.85938 58.635414 247.1875 59.541664Q247.53125 60.43229 247.53125 61.572914Q247.53125 62.55729 247.29688 63.30729Q247.07812 64.05729 246.71875 64.55729Q246.35938 65.05729 245.92188 65.33854Q245.5 65.61979 244.90625 65.77604Q244.3125 65.916664 243.53125 65.916664L240.42188 65.916664ZM241.5625 64.90104L243.39062 64.90104Q244.25 64.90104 244.73438 64.74479Q245.21875 64.58854 245.5 64.291664Q245.90625 63.90104 246.125 63.21354Q246.35938 62.52604 246.35938 61.55729Q246.35938 60.21354 245.90625 59.49479Q245.46875 58.760414 244.84375 58.510414Q244.375 58.33854 243.375 58.33854L241.5625 58.33854L241.5625 64.90104ZM249.625 65.916664L249.625 57.322914L250.75 57.322914L250.75 65.916664L249.625 65.916664ZM252.04688 63.15104L253.10938 63.05729Q253.1875 63.71354 253.46875 64.11979Q253.75 64.52604 254.32812 64.791664Q254.92188 65.041664 255.65625 65.041664Q256.29688 65.041664 256.79688 64.854164Q257.29688 64.65104 257.53125 64.322914Q257.78125 63.979164 257.78125 63.58854Q257.78125 63.18229 257.54688 62.885414Q257.3125 62.572914 256.78125 62.36979Q256.42188 62.229164 255.23438 61.947914Q254.0625 61.666664 253.59375 61.416664Q252.96875 61.08854 252.67188 60.61979Q252.375 60.135414 252.375 59.541664Q252.375 58.90104 252.73438 58.33854Q253.10938 57.760414 253.8125 57.479164Q254.53125 57.18229 255.39062 57.18229Q256.34375 57.18229 257.07812 57.49479Q257.8125 57.791664 258.20312 58.40104Q258.59375 58.99479 258.625 59.74479L257.53125 59.822914Q257.4375 59.010414 256.92188 58.604164Q256.42188 58.18229 255.4375 58.18229Q254.40625 58.18229 253.9375 58.55729Q253.46875 58.93229 253.46875 59.46354Q253.46875 59.93229 253.79688 60.229164Q254.125 60.52604 255.5 60.83854Q256.89062 61.15104 257.40625 61.385414Q258.15625 61.74479 258.51562 62.27604Q258.875 62.791664 258.875 63.49479Q258.875 64.18229 258.48438 64.791664Q258.09375 65.385414 257.35938 65.729164Q256.625 66.05729 255.70312 66.05729Q254.53125 66.05729 253.73438 65.729164Q252.95312 65.385414 252.5 64.697914Q252.0625 64.010414 252.04688 63.15104Z" fill-rule="nonzero"/><path fill="#ea4335" d="M275.5 56.916668C275.5 56.364384 275.94772 55.916668 276.5 55.916668L286.5 55.916668C287.05228 55.916668 287.5 56.364384 287.5 56.916668L287.5 66.916664C287.5 67.46895 287.05228 67.916664 286.5 67.916664L276.5 67.916664C275.94772 67.916664 275.5 67.46895 275.5 66.916664Z" fill-rule="nonzero"/><path fill="#1a1a1a" d="M296.42188 65.916664L296.42188 57.322914L299.39062 57.322914Q300.39062 57.322914 300.92188 57.447914Q301.65625 57.61979 302.17188 58.05729Q302.85938 58.635414 303.1875 59.541664Q303.53125 60.43229 303.53125 61.572914Q303.53125 62.55729 303.29688 63.30729Q303.07812 64.05729 302.71875 64.55729Q302.35938 65.05729 301.92188 65.33854Q301.5 65.61979 300.90625 65.77604Q300.3125 65.916664 299.53125 65.916664L296.42188 65.916664ZM297.5625 64.90104L299.39062 64.90104Q300.25 64.90104 300.73438 64.74479Q301.21875 64.58854 301.5 64.291664Q301.90625 63.90104 302.125 63.21354Q302.35938 62.52604 302.35938 61.55729Q302.35938 60.21354 301.90625 59.49479Q301.46875 58.760414 300.84375 58.510414Q300.375 58.33854 299.375 58.33854L297.5625 58.33854L297.5625 64.90104ZM305.48438 65.916664L305.48438 57.322914L311.28125 57.322914L311.28125 58.33854L306.625 58.33854L306.625 60.99479L310.65625 60.99479L310.65625 62.010414L306.625 62.010414L306.625 65.916664L305.48438 65.916664Z" fill-rule="nonzero"/><path fill="#fbbc04" d="M327.5 56.916668C327.5 56.364384 327.94772 55.916668 328.5 55.916668L338.5 55.916668C339.05228 55.916668 339.5 56.364384 339.5 56.916668L339.5 66.916664C339.5 67.46895 339.05228 67.916664 338.5 67.916664L328.5 67.916664C327.94772 67.916664 327.5 67.46895 327.5 66.916664Z" fill-rule="nonzero"/><path fill="#1a1a1a" d="M348.4375 65.916664L348.4375 57.322914L352.25 57.322914Q353.40625 57.322914 354.0 57.55729Q354.59375 57.791664 354.95312 58.385414Q355.3125 58.96354 355.3125 59.666664Q355.3125 60.58854 354.71875 61.21354Q354.125 61.83854 352.89062 62.010414Q353.34375 62.229164 353.57812 62.43229Q354.07812 62.885414 354.51562 63.572914L356.01562 65.916664L354.57812 65.916664L353.45312 64.135414Q352.95312 63.354164 352.625 62.947914Q352.3125 62.541664 352.04688 62.385414Q351.79688 62.21354 351.53125 62.135414Q351.34375 62.104164 350.90625 62.104164L349.57812 62.104164L349.57812 65.916664L348.4375 65.916664ZM349.57812 61.11979L352.03125 61.11979Q352.79688 61.11979 353.23438 60.96354Q353.6875 60.791664 353.90625 60.447914Q354.14062 60.08854 354.14062 59.666664Q354.14062 59.05729 353.6875 58.666664Q353.25 58.27604 352.29688 58.27604L349.57812 58.27604L349.57812 61.11979ZM357.07812 61.729164Q357.07812 59.58854 358.21875 58.385414Q359.375 57.166664 361.1875 57.166664Q362.39062 57.166664 363.34375 57.74479Q364.29688 58.30729 364.79688 59.322914Q365.29688 60.33854 365.29688 61.635414Q365.29688 62.93229 364.76562 63.96354Q364.23438 64.99479 363.26562 65.52604Q362.3125 66.05729 361.1875 66.05729Q359.96875 66.05729 359.01562 65.479164Q358.0625 64.885414 357.5625 63.885414Q357.07812 62.86979 357.07812 61.729164ZM358.25 61.74479Q358.25 63.30729 359.07812 64.197914Q359.92188 65.08854 361.1875 65.08854Q362.46875 65.08854 363.29688 64.197914Q364.125 63.291664 364.125 61.61979Q364.125 60.572914 363.76562 59.791664Q363.42188 59.010414 362.73438 58.58854Q362.04688 58.15104 361.20312 58.15104Q360.0 58.15104 359.125 58.979164Q358.25 59.80729 358.25 61.74479ZM366.04688 63.15104L367.10938 63.05729Q367.1875 63.71354 367.46875 64.11979Q367.75 64.52604 368.32812 64.791664Q368.92188 65.041664 369.65625 65.041664Q370.29688 65.041664 370.79688 64.854164Q371.29688 64.65104 371.53125 64.322914Q371.78125 63.979164 371.78125 63.58854Q371.78125 63.18229 371.54688 62.885414Q371.3125 62.572914 370.78125 62.36979Q370.42188 62.229164 369.23438 61.947914Q368.0625 61.666664 367.59375 61.416664Q366.96875 61.08854 366.67188 60.61979Q366.375 60.135414 366.375 59.541664Q366.375 58.90104 366.73438 58.33854Q367.10938 57.760414 367.8125 57.479164Q368.53125 57.18229 369.39062 57.18229Q370.34375 57.18229 371.07812 57.49479Q371.8125 57.791664 372.20312 58.40104Q372.59375 58.99479 372.625 59.74479L371.53125 59.822914Q371.4375 59.010414 370.92188 58.604164Q370.42188 58.18229 369.4375 58.18229Q368.40625 58.18229 367.9375 58.55729Q367.46875 58.93229 367.46875 59.46354Q367.46875 59.93229 367.79688 60.229164Q368.125 60.52604 369.5 60.83854Q370.89062 61.15104 371.40625 61.385414Q372.15625 61.74479 372.51562 62.27604Q372.875 62.791664 372.875 63.49479Q372.875 64.18229 372.48438 64.791664Q372.09375 65.385414 371.35938 65.729164Q370.625 66.05729 369.70312 66.05729Q368.53125 66.05729 367.73438 65.729164Q366.95312 65.385414 366.5 64.697914Q366.0625 64.010414 366.04688 63.15104ZM376.60938 65.916664L376.60938 58.33854L373.78125 58.33854L373.78125 57.322914L380.59375 57.322914L380.59375 58.33854L377.75 58.33854L377.75 65.916664L376.60938 65.916664ZM381.45312 65.916664L381.45312 57.322914L387.65625 57.322914L387.65625 58.33854L382.59375 58.33854L382.59375 60.96354L387.34375 60.96354L387.34375 61.979164L382.59375 61.979164L382.59375 64.90104L387.85938 64.90104L387.85938 65.916664L381.45312 65.916664ZM389.4375 65.916664L389.4375 57.322914L393.25 57.322914Q394.40625 57.322914 395.0 57.55729Q395.59375 57.791664 395.95312 58.385414Q396.3125 58.96354 396.3125 59.666664Q396.3125 60.58854 395.71875 61.21354Q395.125 61.83854 393.89062 62.010414Q394.34375 62.229164 394.57812 62.43229Q395.07812 62.885414 395.51562 63.572914L397.01562 65.916664L395.57812 65.916664L394.45312 64.135414Q393.95312 63.354164 393.625 62.947914Q393.3125 62.541664 393.04688 62.385414Q392.79688 62.21354 392.53125 62.135414Q392.34375 62.104164 391.90625 62.104164L390.57812 62.104164L390.57812 65.916664L389.4375 65.916664ZM390.57812 61.11979L393.03125 61.11979Q393.79688 61.11979 394.23438 60.96354Q394.6875 60.791664 394.90625 60.447914Q395.14062 60.08854 395.14062 59.666664Q395.14062 59.05729 394.6875 58.666664Q394.25 58.27604 393.29688 58.27604L390.57812 58.27604L390.57812 61.11979Z" fill-rule="nonzero"/><path fill="#757575" d="M20.128124 37.55L20.128124 23.2375L30.4875 23.2375L30.4875 24.925L22.034374 24.925L22.034374 29.3L29.940624 29.3L29.940624 30.9875L22.034374 30.9875L22.034374 35.8625L30.815624 35.8625L30.815624 37.55L20.128124 37.55ZM33.08125 37.55L33.08125 23.2375L35.01875 23.2375L42.534374 34.471874L42.534374 23.2375L44.346874 23.2375L44.346874 37.55L42.409374 37.55L34.89375 26.3L34.89375 37.55L33.08125 37.55ZM49.7375 37.55L49.7375 24.925L45.01875 24.925L45.01875 23.2375L56.3625 23.2375L56.3625 24.925L51.628124 24.925L51.628124 37.55L49.7375 37.55ZM64.00313 37.55L62.2375 37.55L62.2375 26.346874Q61.6125 26.95625 60.58125 27.565624Q59.55 28.159374 58.721874 28.471874L58.721874 26.76875Q60.20625 26.08125 61.3 25.096874Q62.409374 24.096874 62.8625 23.175L64.00313 23.175L64.00313 37.55ZM68.19063 33.253124L68.19063 31.4875L73.58125 31.4875L73.58125 33.253124L68.19063 33.253124ZM76.03438 37.55L76.03438 23.2375L78.89375 23.2375L82.26875 33.3625Q82.7375 34.784374 82.95625 35.4875Q83.20625 34.70625 83.72188 33.190624L87.14375 23.2375L89.69063 23.2375L89.69063 37.55L87.87813 37.55L87.87813 25.565624L83.70625 37.55L82.00313 37.55L77.8625 25.3625L77.8625 37.55L76.03438 37.55ZM98.45625 32.95625L100.2375 32.8Q100.3625 33.8625 100.81563 34.55Q101.28438 35.2375 102.25313 35.675Q103.2375 36.096874 104.47188 36.096874Q105.55 36.096874 106.37813 35.784374Q107.20625 35.45625 107.6125 34.89375Q108.01875 34.33125 108.01875 33.659374Q108.01875 32.9875 107.62813 32.4875Q107.2375 31.9875 106.34688 31.64375Q105.76875 31.409374 103.78438 30.940624Q101.81563 30.471874 101.03438 30.05Q100.00313 29.51875 99.50313 28.721874Q99.00313 27.925 99.00313 26.940624Q99.00313 25.846874 99.6125 24.909374Q100.22188 23.971874 101.40938 23.4875Q102.59688 22.9875 104.03438 22.9875Q105.62813 22.9875 106.84688 23.503124Q108.06563 24.01875 108.70625 25.01875Q109.3625 26.003124 109.40938 27.26875L107.59688 27.409374Q107.45625 26.05 106.6125 25.3625Q105.76875 24.659374 104.1125 24.659374Q102.39375 24.659374 101.59688 25.3Q100.81563 25.925 100.81563 26.8Q100.81563 27.58125 101.37813 28.08125Q101.925 28.58125 104.2375 29.096874Q106.55 29.6125 107.40938 30.003124Q108.65938 30.58125 109.25313 31.471874Q109.84688 32.346874 109.84688 33.503124Q109.84688 34.64375 109.19063 35.659374Q108.53438 36.675 107.3 37.2375Q106.08125 37.8 104.55 37.8Q102.6125 37.8 101.3 37.2375Q99.9875 36.659374 99.2375 35.51875Q98.4875 34.378124 98.45625 32.95625ZM118.64375 33.753124L120.3625 33.971874Q120.08125 35.76875 118.90938 36.784374Q117.75313 37.784374 116.05 37.784374Q113.925 37.784374 112.62813 36.39375Q111.33125 35.003124 111.33125 32.409374Q111.33125 30.721874 111.87813 29.471874Q112.44063 28.20625 113.58125 27.58125Q114.72188 26.940624 116.06563 26.940624Q117.75313 26.940624 118.81563 27.8Q119.89375 28.659374 120.20625 30.221874L118.4875 30.4875Q118.25313 29.440624 117.62813 28.925Q117.00313 28.39375 116.12813 28.39375Q114.8 28.39375 113.97188 29.346874Q113.14375 30.3 113.14375 32.346874Q113.14375 34.440624 113.94063 35.39375Q114.7375 36.33125 116.03438 36.33125Q117.06563 36.33125 117.75313 35.70625Q118.45625 35.065624 118.64375 33.753124ZM128.64375 36.26875Q127.65938 37.096874 126.75313 37.440624Q125.84688 37.784374 124.81563 37.784374Q123.1125 37.784374 122.19063 36.95625Q121.26875 36.1125 121.26875 34.815624Q121.26875 34.05 121.6125 33.425Q121.97188 32.8 122.53438 32.425Q123.09688 32.034374 123.8 31.83125Q124.31563 31.70625 125.3625 31.565624Q127.4875 31.315624 128.4875 30.971874Q128.50313 30.6125 128.50313 30.503124Q128.50313 29.440624 128.00313 28.9875Q127.33125 28.39375 126.00313 28.39375Q124.75313 28.39375 124.15938 28.83125Q123.58125 29.26875 123.3 30.378124L121.58125 30.14375Q121.81563 29.034374 122.34688 28.3625Q122.87813 27.675 123.89375 27.315624Q124.90938 26.940624 126.25313 26.940624Q127.58125 26.940624 128.40938 27.253124Q129.2375 27.565624 129.62813 28.05Q130.01875 28.51875 130.175 29.2375Q130.26875 29.690624 130.26875 30.8625L130.26875 33.20625Q130.26875 35.659374 130.37813 36.315624Q130.4875 36.95625 130.83125 37.55L128.9875 37.55Q128.72188 37.003124 128.64375 36.26875ZM128.4875 32.346874Q127.53438 32.7375 125.6125 33.003124Q124.53438 33.159374 124.08125 33.3625Q123.64375 33.55 123.39375 33.925Q123.14375 34.3 123.14375 34.76875Q123.14375 35.471874 123.675 35.940624Q124.20625 36.409374 125.2375 36.409374Q126.25313 36.409374 127.03438 35.971874Q127.83125 35.51875 128.20625 34.753124Q128.4875 34.14375 128.4875 32.9875L128.4875 32.346874ZM132.83125 37.55L132.83125 23.2375L134.58125 23.2375L134.58125 37.55L132.83125 37.55ZM143.97188 34.20625L145.78438 34.440624Q145.3625 36.01875 144.19063 36.909374Q143.03438 37.784374 141.22188 37.784374Q138.95625 37.784374 137.6125 36.39375Q136.28438 34.9875 136.28438 32.45625Q136.28438 29.83125 137.62813 28.39375Q138.97188 26.940624 141.12813 26.940624Q143.20625 26.940624 144.51875 28.3625Q145.84688 29.76875 145.84688 32.346874Q145.84688 32.503124 145.83125 32.815624L138.09688 32.815624Q138.19063 34.51875 139.06563 35.425Q139.94063 36.33125 141.2375 36.33125Q142.20625 36.33125 142.87813 35.83125Q143.56563 35.315624 143.97188 34.20625ZM138.19063 31.3625L143.9875 31.3625Q143.87813 30.065624 143.33125 29.409374Q142.4875 28.39375 141.14375 28.39375Q139.94063 28.39375 139.1125 29.20625Q138.28438 30.003124 138.19063 31.3625ZM149.78438 37.55L146.6125 27.175L148.425 27.175L150.08125 33.159374L150.69063 35.39375Q150.7375 35.221874 151.22188 33.253124L152.87813 27.175L154.69063 27.175L156.2375 33.190624L156.75313 35.175L157.34688 33.175L159.12813 27.175L160.83125 27.175L157.59688 37.55L155.76875 37.55L154.1125 31.33125L153.72188 29.565624L151.6125 37.55L149.78438 37.55ZM169.64375 36.26875Q168.65938 37.096874 167.75313 37.440624Q166.84688 37.784374 165.81563 37.784374Q164.1125 37.784374 163.19063 36.95625Q162.26875 36.1125 162.26875 34.815624Q162.26875 34.05 162.6125 33.425Q162.97188 32.8 163.53438 32.425Q164.09688 32.034374 164.8 31.83125Q165.31563 31.70625 166.3625 31.565624Q168.4875 31.315624 169.4875 30.971874Q169.50313 30.6125 169.50313 30.503124Q169.50313 29.440624 169.00313 28.9875Q168.33125 28.39375 167.00313 28.39375Q165.75313 28.39375 165.15938 28.83125Q164.58125 29.26875 164.3 30.378124L162.58125 30.14375Q162.81563 29.034374 163.34688 28.3625Q163.87813 27.675 164.89375 27.315624Q165.90938 26.940624 167.25313 26.940624Q168.58125 26.940624 169.40938 27.253124Q170.2375 27.565624 170.62813 28.05Q171.01875 28.51875 171.175 29.2375Q171.26875 29.690624 171.26875 30.8625L171.26875 33.20625Q171.26875 35.659374 171.37813 36.315624Q171.4875 36.95625 171.83125 37.55L169.9875 37.55Q169.72188 37.003124 169.64375 36.26875ZM169.4875 32.346874Q168.53438 32.7375 166.6125 33.003124Q165.53438 33.159374 165.08125 33.3625Q164.64375 33.55 164.39375 33.925Q164.14375 34.3 164.14375 34.76875Q164.14375 35.471874 164.675 35.940624Q165.20625 36.409374 166.2375 36.409374Q167.25313 36.409374 168.03438 35.971874Q168.83125 35.51875 169.20625 34.753124Q169.4875 34.14375 169.4875 32.9875L169.4875 32.346874ZM173.78438 41.55L173.59688 39.89375Q174.175 40.05 174.59688 40.05Q175.19063 40.05 175.53438 39.846874Q175.89375 39.659374 176.1125 39.315624Q176.28438 39.05 176.65938 38.003124Q176.70625 37.846874 176.81563 37.565624L172.87813 27.175L174.76875 27.175L176.925 33.190624Q177.34688 34.33125 177.675 35.58125Q177.9875 34.378124 178.39375 33.221874L180.6125 27.175L182.37813 27.175L178.425 37.721874Q177.8 39.440624 177.44063 40.08125Q176.97188 40.95625 176.3625 41.346874Q175.76875 41.753124 174.925 41.753124Q174.40938 41.753124 173.78438 41.55Z" fill-rule="nonzero"/></svg>
