<svg version="1.1" viewBox="0.0 0.0 600.0 371.0" fill="none" stroke="none" stroke-linecap="square" stroke-miterlimit="10" width="600" height="371" xmlns:xlink="http://www.w3.org/1999/xlink" xmlns="http://www.w3.org/2000/svg"><path fill="#ffffff" d="M0 0L600.0 0L600.0 371.0L0 371.0L0 0Z" fill-rule="nonzero"/><path stroke="#333333" stroke-width="1.0" stroke-linecap="butt" d="M66.5 332.5L581.5 332.5" fill-rule="nonzero"/><path stroke="#cccccc" stroke-width="1.0" stroke-linecap="butt" d="M66.5 283.5L581.5 283.5" fill-rule="nonzero"/><path stroke="#cccccc" stroke-width="1.0" stroke-linecap="butt" d="M66.5 234.5L581.5 234.5" fill-rule="nonzero"/><path stroke="#cccccc" stroke-width="1.0" stroke-linecap="butt" d="M66.5 185.5L581.5 185.5" fill-rule="nonzero"/><path stroke="#cccccc" stroke-width="1.0" stroke-linecap="butt" d="M66.5 137.5L581.5 137.5" fill-rule="nonzero"/><path stroke="#cccccc" stroke-width="1.0" stroke-linecap="butt" d="M66.5 88.5L581.5 88.5" fill-rule="nonzero"/><clipPath id="id_0"><path d="M66.55 88.28333L581.45 88.28333L581.45 332.45L66.55 332.45L66.55 88.28333Z" clip-rule="nonzero"/></clipPath><path stroke="#000000" stroke-width="2.0" stroke-linecap="butt" stroke-opacity="0.0" clip-path="url(#id_0)" d="M153.0 332.0L122.0 332.0L122.0 91.0C122.0 89.89543 122.89543 89.0 124.0 89.0L151.0 89.0C152.10457 89.0 153.0 89.89543 153.0 91.0Z" fill-rule="nonzero"/><path fill="#4285f4" clip-path="url(#id_0)" d="M153.0 332.0L122.0 332.0L122.0 91.0C122.0 89.89543 122.89543 89.0 124.0 89.0L151.0 89.0C152.10457 89.0 153.0 89.89543 153.0 91.0Z" fill-rule="nonzero"/><path stroke="#000000" stroke-width="2.0" stroke-linecap="butt" stroke-opacity="0.0" clip-path="url(#id_0)" d="M307.0 332.0L276.0 332.0L276.0 101.0C276.0 99.89543 276.89542 99.0 278.0 99.0L305.0 99.0C306.10458 99.0 307.0 99.89543 307.0 101.0Z" fill-rule="nonzero"/><path fill="#4285f4" clip-path="url(#id_0)" d="M307.0 332.0L276.0 332.0L276.0 101.0C276.0 99.89543 276.89542 99.0 278.0 99.0L305.0 99.0C306.10458 99.0 307.0 99.89543 307.0 101.0Z" fill-rule="nonzero"/><path stroke="#000000" stroke-width="2.0" stroke-linecap="butt" stroke-opacity="0.0" clip-path="url(#id_0)" d="M461.0 332.0L430.0 332.0L430.0 94.0C430.0 92.89543 430.89542 92.0 432.0 92.0L459.0 92.0C460.10458 92.0 461.0 92.89543 461.0 94.0Z" fill-rule="nonzero"/><path fill="#4285f4" clip-path="url(#id_0)" d="M461.0 332.0L430.0 332.0L430.0 94.0C430.0 92.89543 430.89542 92.0 432.0 92.0L459.0 92.0C460.10458 92.0 461.0 92.89543 461.0 94.0Z" fill-rule="nonzero"/><path stroke="#000000" stroke-width="2.0" stroke-linecap="butt" stroke-opacity="0.0" clip-path="url(#id_0)" d="M186.0 332.0L155.0 332.0L155.0 102.0C155.0 100.89543 155.89543 100.0 157.0 100.0L184.0 100.0C185.10457 100.0 186.0 100.89543 186.0 102.0Z" fill-rule="nonzero"/><path fill="#ea4335" clip-path="url(#id_0)" d="M186.0 332.0L155.0 332.0L155.0 102.0C155.0 100.89543 155.89543 100.0 157.0 100.0L184.0 100.0C185.10457 100.0 186.0 100.89543 186.0 102.0Z" fill-rule="nonzero"/><path stroke="#000000" stroke-width="2.0" stroke-linecap="butt" stroke-opacity="0.0" clip-path="url(#id_0)" d="M340.0 332.0L309.0 332.0L309.0 118.0C309.0 116.89543 309.89542 116.0 311.0 116.0L338.0 116.0C339.10458 116.0 340.0 116.89543 340.0 118.0Z" fill-rule="nonzero"/><path fill="#ea4335" clip-path="url(#id_0)" d="M340.0 332.0L309.0 332.0L309.0 118.0C309.0 116.89543 309.89542 116.0 311.0 116.0L338.0 116.0C339.10458 116.0 340.0 116.89543 340.0 118.0Z" fill-rule="nonzero"/><path stroke="#000000" stroke-width="2.0" stroke-linecap="butt" stroke-opacity="0.0" clip-path="url(#id_0)" d="M494.0 332.0L463.0 332.0L463.0 110.0C463.0 108.89543 463.89542 108.0 465.0 108.0L492.0 108.0C493.10458 108.0 494.0 108.89543 494.0 110.0Z" fill-rule="nonzero"/><path fill="#ea4335" clip-path="url(#id_0)" d="M494.0 332.0L463.0 332.0L463.0 110.0C463.0 108.89543 463.89542 108.0 465.0 108.0L492.0 108.0C493.10458 108.0 494.0 108.89543 494.0 110.0Z" fill-rule="nonzero"/><path stroke="#000000" stroke-width="2.0" stroke-linecap="butt" stroke-opacity="0.0" clip-path="url(#id_0)" d="M219.0 332.0L188.0 332.0L188.0 95.0C188.0 93.89543 188.89543 93.0 190.0 93.0L217.0 93.0C218.10457 93.0 219.0 93.89543 219.0 95.0Z" fill-rule="nonzero"/><path fill="#fbbc04" clip-path="url(#id_0)" d="M219.0 332.0L188.0 332.0L188.0 95.0C188.0 93.89543 188.89543 93.0 190.0 93.0L217.0 93.0C218.10457 93.0 219.0 93.89543 219.0 95.0Z" fill-rule="nonzero"/><path stroke="#000000" stroke-width="2.0" stroke-linecap="butt" stroke-opacity="0.0" clip-path="url(#id_0)" d="M373.0 332.0L342.0 332.0L342.0 107.0C342.0 105.89543 342.89542 105.0 344.0 105.0L371.0 105.0C372.10458 105.0 373.0 105.89543 373.0 107.0Z" fill-rule="nonzero"/><path fill="#fbbc04" clip-path="url(#id_0)" d="M373.0 332.0L342.0 332.0L342.0 107.0C342.0 105.89543 342.89542 105.0 344.0 105.0L371.0 105.0C372.10458 105.0 373.0 105.89543 373.0 107.0Z" fill-rule="nonzero"/><path stroke="#000000" stroke-width="2.0" stroke-linecap="butt" stroke-opacity="0.0" clip-path="url(#id_0)" d="M527.0 332.0L496.0 332.0L496.0 99.0C496.0 97.89543 496.89542 97.0 498.0 97.0L525.0 97.0C526.10455 97.0 527.0 97.89543 527.0 99.0Z" fill-rule="nonzero"/><path fill="#fbbc04" clip-path="url(#id_0)" d="M527.0 332.0L496.0 332.0L496.0 99.0C496.0 97.89543 496.89542 97.0 498.0 97.0L525.0 97.0C526.10455 97.0 527.0 97.89543 527.0 99.0Z" fill-rule="nonzero"/><path fill="#000000" d="M54.05 332.21564Q54.05 330.6844 54.3625 329.7625Q54.675 328.825 55.284374 328.325Q55.909374 327.825 56.846874 327.825Q57.534374 327.825 58.05 328.10626Q58.58125 328.3875 58.925 328.91876Q59.26875 329.4344 59.45625 330.1844Q59.64375 330.9344 59.64375 332.21564Q59.64375 333.73126 59.33125 334.65314Q59.034374 335.575 58.409374 336.09064Q57.8 336.59064 56.846874 336.59064Q55.6125 336.59064 54.89375 335.7Q54.05 334.6375 54.05 332.21564ZM55.128124 332.21564Q55.128124 334.325 55.628124 335.02814Q56.128124 335.73126 56.846874 335.73126Q57.58125 335.73126 58.065624 335.02814Q58.565624 334.325 58.565624 332.21564Q58.565624 330.09064 58.065624 329.40314Q57.58125 328.7 56.83125 328.7Q56.1125 328.7 55.675 329.3094Q55.128124 330.09064 55.128124 332.21564Z" fill-rule="nonzero"/><path fill="#000000" d="M31.596874 286.60104L31.596874 287.61667L25.909374 287.61667Q25.909374 287.24167 26.034374 286.8823Q26.253124 286.30417 26.721874 285.74167Q27.20625 285.17917 28.1125 284.4448Q29.51875 283.28854 30.003124 282.61667Q30.503124 281.9448 30.503124 281.35104Q30.503124 280.72604 30.05 280.30417Q29.596874 279.86667 28.878124 279.86667Q28.1125 279.86667 27.659374 280.3198Q27.20625 280.77292 27.190624 281.58542L26.1125 281.47604Q26.221874 280.2573 26.940624 279.6323Q27.675 278.99167 28.909374 278.99167Q30.14375 278.99167 30.8625 279.67917Q31.58125 280.36667 31.58125 281.3823Q31.58125 281.89792 31.3625 282.39792Q31.159374 282.8823 30.659374 283.4448Q30.175 283.99167 29.05 284.9448Q28.096874 285.74167 27.815624 286.03854Q27.55 286.3198 27.378124 286.60104L31.596874 286.60104ZM33.05 285.36667L34.159374 285.27292Q34.284374 286.08542 34.721874 286.49167Q35.175 286.89792 35.815624 286.89792Q36.565624 286.89792 37.096874 286.3198Q37.628124 285.74167 37.628124 284.80417Q37.628124 283.89792 37.1125 283.3823Q36.6125 282.85104 35.784374 282.85104Q35.284374 282.85104 34.8625 283.08542Q34.45625 283.3198 34.221874 283.67917L33.2375 283.55417L34.065624 279.14792L38.346874 279.14792L38.346874 280.14792L34.909374 280.14792L34.45625 282.46042Q35.221874 281.91354 36.065624 281.91354Q37.190624 281.91354 37.95625 282.6948Q38.7375 283.47604 38.7375 284.71042Q38.7375 285.86667 38.065624 286.72604Q37.2375 287.7573 35.815624 287.7573Q34.64375 287.7573 33.89375 287.10104Q33.159374 286.4448 33.05 285.36667ZM40.05 283.3823Q40.05 281.85104 40.3625 280.92917Q40.675 279.99167 41.284374 279.49167Q41.909374 278.99167 42.846874 278.99167Q43.534374 278.99167 44.05 279.27292Q44.58125 279.55417 44.925 280.08542Q45.26875 280.60104 45.45625 281.35104Q45.64375 282.10104 45.64375 283.3823Q45.64375 284.89792 45.33125 285.8198Q45.034374 286.74167 44.409374 287.2573Q43.8 287.7573 42.846874 287.7573Q41.6125 287.7573 40.89375 286.86667Q40.05 285.80417 40.05 283.3823ZM41.128124 283.3823Q41.128124 285.49167 41.628124 286.1948Q42.128124 286.89792 42.846874 286.89792Q43.58125 286.89792 44.065624 286.1948Q44.565624 285.49167 44.565624 283.3823Q44.565624 281.2573 44.065624 280.5698Q43.58125 279.86667 42.83125 279.86667Q42.1125 279.86667 41.675 280.47604Q41.128124 281.2573 41.128124 283.3823ZM47.05 283.3823Q47.05 281.85104 47.3625 280.92917Q47.675 279.99167 48.284374 279.49167Q48.909374 278.99167 49.846874 278.99167Q50.534374 278.99167 51.05 279.27292Q51.58125 279.55417 51.925 280.08542Q52.26875 280.60104 52.45625 281.35104Q52.64375 282.10104 52.64375 283.3823Q52.64375 284.89792 52.33125 285.8198Q52.034374 286.74167 51.409374 287.2573Q50.8 287.7573 49.846874 287.7573Q48.6125 287.7573 47.89375 286.86667Q47.05 285.80417 47.05 283.3823ZM48.128124 283.3823Q48.128124 285.49167 48.628124 286.1948Q49.128124 286.89792 49.846874 286.89792Q50.58125 286.89792 51.065624 286.1948Q51.565624 285.49167 51.565624 283.3823Q51.565624 281.2573 51.065624 280.5698Q50.58125 279.86667 49.83125 279.86667Q49.1125 279.86667 48.675 280.47604Q48.128124 281.2573 48.128124 283.3823ZM54.05 283.3823Q54.05 281.85104 54.3625 280.92917Q54.675 279.99167 55.284374 279.49167Q55.909374 278.99167 56.846874 278.99167Q57.534374 278.99167 58.05 279.27292Q58.58125 279.55417 58.925 280.08542Q59.26875 280.60104 59.45625 281.35104Q59.64375 282.10104 59.64375 283.3823Q59.64375 284.89792 59.33125 285.8198Q59.034374 286.74167 58.409374 287.2573Q57.8 287.7573 56.846874 287.7573Q55.6125 287.7573 54.89375 286.86667Q54.05 285.80417 54.05 283.3823ZM55.128124 283.3823Q55.128124 285.49167 55.628124 286.1948Q56.128124 286.89792 56.846874 286.89792Q57.58125 286.89792 58.065624 286.1948Q58.565624 285.49167 58.565624 283.3823Q58.565624 281.2573 58.065624 280.5698Q57.58125 279.86667 56.83125 279.86667Q56.1125 279.86667 55.675 280.47604Q55.128124 281.2573 55.128124 283.3823Z" fill-rule="nonzero"/><path fill="#000000" d="M26.05 236.53334L27.159374 236.43959Q27.284374 237.25209 27.721874 237.65834Q28.175 238.06459 28.815624 238.06459Q29.565624 238.06459 30.096874 237.48647Q30.628124 236.90834 30.628124 235.97084Q30.628124 235.06459 30.1125 234.54897Q29.6125 234.01772 28.784374 234.01772Q28.284374 234.01772 27.8625 234.25209Q27.45625 234.48647 27.221874 234.84584L26.2375 234.72084L27.065624 230.31459L31.346874 230.31459L31.346874 231.31459L27.909374 231.31459L27.45625 233.62709Q28.221874 233.08022 29.065624 233.08022Q30.190624 233.08022 30.95625 233.86147Q31.7375 234.64272 31.7375 235.87709Q31.7375 237.03334 31.065624 237.89272Q30.2375 238.92397 28.815624 238.92397Q27.64375 238.92397 26.89375 238.26772Q26.159374 237.61147 26.05 236.53334ZM33.05 234.54897Q33.05 233.01772 33.3625 232.09584Q33.675 231.15834 34.284374 230.65834Q34.909374 230.15834 35.846874 230.15834Q36.534374 230.15834 37.05 230.43959Q37.58125 230.72084 37.925 231.25209Q38.26875 231.76772 38.45625 232.51772Q38.64375 233.26772 38.64375 234.54897Q38.64375 236.06459 38.33125 236.98647Q38.034374 237.90834 37.409374 238.42397Q36.8 238.92397 35.846874 238.92397Q34.6125 238.92397 33.89375 238.03334Q33.05 236.97084 33.05 234.54897ZM34.128124 234.54897Q34.128124 236.65834 34.628124 237.36147Q35.128124 238.06459 35.846874 238.06459Q36.58125 238.06459 37.065624 237.36147Q37.565624 236.65834 37.565624 234.54897Q37.565624 232.42397 37.065624 231.73647Q36.58125 231.03334 35.83125 231.03334Q35.1125 231.03334 34.675 231.64272Q34.128124 232.42397 34.128124 234.54897ZM40.05 234.54897Q40.05 233.01772 40.3625 232.09584Q40.675 231.15834 41.284374 230.65834Q41.909374 230.15834 42.846874 230.15834Q43.534374 230.15834 44.05 230.43959Q44.58125 230.72084 44.925 231.25209Q45.26875 231.76772 45.45625 232.51772Q45.64375 233.26772 45.64375 234.54897Q45.64375 236.06459 45.33125 236.98647Q45.034374 237.90834 44.409374 238.42397Q43.8 238.92397 42.846874 238.92397Q41.6125 238.92397 40.89375 238.03334Q40.05 236.97084 40.05 234.54897ZM41.128124 234.54897Q41.128124 236.65834 41.628124 237.36147Q42.128124 238.06459 42.846874 238.06459Q43.58125 238.06459 44.065624 237.36147Q44.565624 236.65834 44.565624 234.54897Q44.565624 232.42397 44.065624 231.73647Q43.58125 231.03334 42.83125 231.03334Q42.1125 231.03334 41.675 231.64272Q41.128124 232.42397 41.128124 234.54897ZM47.05 234.54897Q47.05 233.01772 47.3625 232.09584Q47.675 231.15834 48.284374 230.65834Q48.909374 230.15834 49.846874 230.15834Q50.534374 230.15834 51.05 230.43959Q51.58125 230.72084 51.925 231.25209Q52.26875 231.76772 52.45625 232.51772Q52.64375 233.26772 52.64375 234.54897Q52.64375 236.06459 52.33125 236.98647Q52.034374 237.90834 51.409374 238.42397Q50.8 238.92397 49.846874 238.92397Q48.6125 238.92397 47.89375 238.03334Q47.05 236.97084 47.05 234.54897ZM48.128124 234.54897Q48.128124 236.65834 48.628124 237.36147Q49.128124 238.06459 49.846874 238.06459Q50.58125 238.06459 51.065624 237.36147Q51.565624 236.65834 51.565624 234.54897Q51.565624 232.42397 51.065624 231.73647Q50.58125 231.03334 49.83125 231.03334Q49.1125 231.03334 48.675 231.64272Q48.128124 232.42397 48.128124 234.54897ZM54.05 234.54897Q54.05 233.01772 54.3625 232.09584Q54.675 231.15834 55.284374 230.65834Q55.909374 230.15834 56.846874 230.15834Q57.534374 230.15834 58.05 230.43959Q58.58125 230.72084 58.925 231.25209Q59.26875 231.76772 59.45625 232.51772Q59.64375 233.26772 59.64375 234.54897Q59.64375 236.06459 59.33125 236.98647Q59.034374 237.90834 58.409374 238.42397Q57.8 238.92397 56.846874 238.92397Q55.6125 238.92397 54.89375 238.03334Q54.05 236.97084 54.05 234.54897ZM55.128124 234.54897Q55.128124 236.65834 55.628124 237.36147Q56.128124 238.06459 56.846874 238.06459Q57.58125 238.06459 58.065624 237.36147Q58.565624 236.65834 58.565624 234.54897Q58.565624 232.42397 58.065624 231.73647Q57.58125 231.03334 56.83125 231.03334Q56.1125 231.03334 55.675 231.64272Q55.128124 232.42397 55.128124 234.54897Z" fill-rule="nonzero"/><path fill="#000000" d="M26.1125 182.48125L26.1125 181.46562L31.675 181.46562L31.675 182.29375Q30.8625 183.16875 30.05 184.62187Q29.253124 186.05937 28.815624 187.59062Q28.4875 188.66875 28.409374 189.95L27.315624 189.95Q27.33125 188.93437 27.70625 187.49687Q28.096874 186.05937 28.8 184.73125Q29.51875 183.40312 30.33125 182.48125L26.1125 182.48125ZM33.05 187.7L34.159374 187.60625Q34.284374 188.41875 34.721874 188.825Q35.175 189.23125 35.815624 189.23125Q36.565624 189.23125 37.096874 188.65312Q37.628124 188.075 37.628124 187.1375Q37.628124 186.23125 37.1125 185.71562Q36.6125 185.18437 35.784374 185.18437Q35.284374 185.18437 34.8625 185.41875Q34.45625 185.65312 34.221874 186.0125L33.2375 185.8875L34.065624 181.48125L38.346874 181.48125L38.346874 182.48125L34.909374 182.48125L34.45625 184.79375Q35.221874 184.24687 36.065624 184.24687Q37.190624 184.24687 37.95625 185.02812Q38.7375 185.80937 38.7375 187.04375Q38.7375 188.2 38.065624 189.05937Q37.2375 190.09062 35.815624 190.09062Q34.64375 190.09062 33.89375 189.43437Q33.159374 188.77812 33.05 187.7ZM40.05 185.71562Q40.05 184.18437 40.3625 183.2625Q40.675 182.325 41.284374 181.825Q41.909374 181.325 42.846874 181.325Q43.534374 181.325 44.05 181.60625Q44.58125 181.8875 44.925 182.41875Q45.26875 182.93437 45.45625 183.68437Q45.64375 184.43437 45.64375 185.71562Q45.64375 187.23125 45.33125 188.15312Q45.034374 189.075 44.409374 189.59062Q43.8 190.09062 42.846874 190.09062Q41.6125 190.09062 40.89375 189.2Q40.05 188.1375 40.05 185.71562ZM41.128124 185.71562Q41.128124 187.825 41.628124 188.52812Q42.128124 189.23125 42.846874 189.23125Q43.58125 189.23125 44.065624 188.52812Q44.565624 187.825 44.565624 185.71562Q44.565624 183.59062 44.065624 182.90312Q43.58125 182.2 42.83125 182.2Q42.1125 182.2 41.675 182.80937Q41.128124 183.59062 41.128124 185.71562ZM47.05 185.71562Q47.05 184.18437 47.3625 183.2625Q47.675 182.325 48.284374 181.825Q48.909374 181.325 49.846874 181.325Q50.534374 181.325 51.05 181.60625Q51.58125 181.8875 51.925 182.41875Q52.26875 182.93437 52.45625 183.68437Q52.64375 184.43437 52.64375 185.71562Q52.64375 187.23125 52.33125 188.15312Q52.034374 189.075 51.409374 189.59062Q50.8 190.09062 49.846874 190.09062Q48.6125 190.09062 47.89375 189.2Q47.05 188.1375 47.05 185.71562ZM48.128124 185.71562Q48.128124 187.825 48.628124 188.52812Q49.128124 189.23125 49.846874 189.23125Q50.58125 189.23125 51.065624 188.52812Q51.565624 187.825 51.565624 185.71562Q51.565624 183.59062 51.065624 182.90312Q50.58125 182.2 49.83125 182.2Q49.1125 182.2 48.675 182.80937Q48.128124 183.59062 48.128124 185.71562ZM54.05 185.71562Q54.05 184.18437 54.3625 183.2625Q54.675 182.325 55.284374 181.825Q55.909374 181.325 56.846874 181.325Q57.534374 181.325 58.05 181.60625Q58.58125 181.8875 58.925 182.41875Q59.26875 182.93437 59.45625 183.68437Q59.64375 184.43437 59.64375 185.71562Q59.64375 187.23125 59.33125 188.15312Q59.034374 189.075 58.409374 189.59062Q57.8 190.09062 56.846874 190.09062Q55.6125 190.09062 54.89375 189.2Q54.05 188.1375 54.05 185.71562ZM55.128124 185.71562Q55.128124 187.825 55.628124 188.52812Q56.128124 189.23125 56.846874 189.23125Q57.58125 189.23125 58.065624 188.52812Q58.565624 187.825 58.565624 185.71562Q58.565624 183.59062 58.065624 182.90312Q57.58125 182.2 56.83125 182.2Q56.1125 182.2 55.675 182.80937Q55.128124 183.59062 55.128124 185.71562Z" fill-rule="nonzero"/><path fill="#000000" d="M23.01875 141.11667L21.971874 141.11667L21.971874 134.39792Q21.58125 134.7573 20.95625 135.1323Q20.346874 135.49167 19.8625 135.66354L19.8625 134.64792Q20.7375 134.22604 21.39375 133.64792Q22.065624 133.05417 22.346874 132.49167L23.01875 132.49167L23.01875 141.11667ZM26.05 136.8823Q26.05 135.35104 26.3625 134.42917Q26.675 133.49167 27.284374 132.99167Q27.909374 132.49167 28.846874 132.49167Q29.534374 132.49167 30.05 132.77292Q30.58125 133.05417 30.925 133.58542Q31.26875 134.10104 31.45625 134.85104Q31.64375 135.60104 31.64375 136.8823Q31.64375 138.39792 31.33125 139.3198Q31.034374 140.24167 30.409374 140.7573Q29.8 141.2573 28.846874 141.2573Q27.6125 141.2573 26.89375 140.36667Q26.05 139.30417 26.05 136.8823ZM27.128124 136.8823Q27.128124 138.99167 27.628124 139.6948Q28.128124 140.39792 28.846874 140.39792Q29.58125 140.39792 30.065624 139.6948Q30.565624 138.99167 30.565624 136.8823Q30.565624 134.7573 30.065624 134.0698Q29.58125 133.36667 28.83125 133.36667Q28.1125 133.36667 27.675 133.97604Q27.128124 134.7573 27.128124 136.8823ZM33.05 136.8823Q33.05 135.35104 33.3625 134.42917Q33.675 133.49167 34.284374 132.99167Q34.909374 132.49167 35.846874 132.49167Q36.534374 132.49167 37.05 132.77292Q37.58125 133.05417 37.925 133.58542Q38.26875 134.10104 38.45625 134.85104Q38.64375 135.60104 38.64375 136.8823Q38.64375 138.39792 38.33125 139.3198Q38.034374 140.24167 37.409374 140.7573Q36.8 141.2573 35.846874 141.2573Q34.6125 141.2573 33.89375 140.36667Q33.05 139.30417 33.05 136.8823ZM34.128124 136.8823Q34.128124 138.99167 34.628124 139.6948Q35.128124 140.39792 35.846874 140.39792Q36.58125 140.39792 37.065624 139.6948Q37.565624 138.99167 37.565624 136.8823Q37.565624 134.7573 37.065624 134.0698Q36.58125 133.36667 35.83125 133.36667Q35.1125 133.36667 34.675 133.97604Q34.128124 134.7573 34.128124 136.8823ZM40.05 136.8823Q40.05 135.35104 40.3625 134.42917Q40.675 133.49167 41.284374 132.99167Q41.909374 132.49167 42.846874 132.49167Q43.534374 132.49167 44.05 132.77292Q44.58125 133.05417 44.925 133.58542Q45.26875 134.10104 45.45625 134.85104Q45.64375 135.60104 45.64375 136.8823Q45.64375 138.39792 45.33125 139.3198Q45.034374 140.24167 44.409374 140.7573Q43.8 141.2573 42.846874 141.2573Q41.6125 141.2573 40.89375 140.36667Q40.05 139.30417 40.05 136.8823ZM41.128124 136.8823Q41.128124 138.99167 41.628124 139.6948Q42.128124 140.39792 42.846874 140.39792Q43.58125 140.39792 44.065624 139.6948Q44.565624 138.99167 44.565624 136.8823Q44.565624 134.7573 44.065624 134.0698Q43.58125 133.36667 42.83125 133.36667Q42.1125 133.36667 41.675 133.97604Q41.128124 134.7573 41.128124 136.8823ZM47.05 136.8823Q47.05 135.35104 47.3625 134.42917Q47.675 133.49167 48.284374 132.99167Q48.909374 132.49167 49.846874 132.49167Q50.534374 132.49167 51.05 132.77292Q51.58125 133.05417 51.925 133.58542Q52.26875 134.10104 52.45625 134.85104Q52.64375 135.60104 52.64375 136.8823Q52.64375 138.39792 52.33125 139.3198Q52.034374 140.24167 51.409374 140.7573Q50.8 141.2573 49.846874 141.2573Q48.6125 141.2573 47.89375 140.36667Q47.05 139.30417 47.05 136.8823ZM48.128124 136.8823Q48.128124 138.99167 48.628124 139.6948Q49.128124 140.39792 49.846874 140.39792Q50.58125 140.39792 51.065624 139.6948Q51.565624 138.99167 51.565624 136.8823Q51.565624 134.7573 51.065624 134.0698Q50.58125 133.36667 49.83125 133.36667Q49.1125 133.36667 48.675 133.97604Q48.128124 134.7573 48.128124 136.8823ZM54.05 136.8823Q54.05 135.35104 54.3625 134.42917Q54.675 133.49167 55.284374 132.99167Q55.909374 132.49167 56.846874 132.49167Q57.534374 132.49167 58.05 132.77292Q58.58125 133.05417 58.925 133.58542Q59.26875 134.10104 59.45625 134.85104Q59.64375 135.60104 59.64375 136.8823Q59.64375 138.39792 59.33125 139.3198Q59.034374 140.24167 58.409374 140.7573Q57.8 141.2573 56.846874 141.2573Q55.6125 141.2573 54.89375 140.36667Q54.05 139.30417 54.05 136.8823ZM55.128124 136.8823Q55.128124 138.99167 55.628124 139.6948Q56.128124 140.39792 56.846874 140.39792Q57.58125 140.39792 58.065624 139.6948Q58.565624 138.99167 58.565624 136.8823Q58.565624 134.7573 58.065624 134.0698Q57.58125 133.36667 56.83125 133.36667Q56.1125 133.36667 55.675 133.97604Q55.128124 134.7573 55.128124 136.8823Z" fill-rule="nonzero"/><path fill="#000000" d="M23.01875 92.28333L21.971874 92.28333L21.971874 85.56458Q21.58125 85.92396 20.95625 86.29896Q20.346874 86.65833 19.8625 86.83021L19.8625 85.81458Q20.7375 85.39271 21.39375 84.81458Q22.065624 84.22083 22.346874 83.65833L23.01875 83.65833L23.01875 92.28333ZM31.596874 91.26771L31.596874 92.28333L25.909374 92.28333Q25.909374 91.90833 26.034374 91.54896Q26.253124 90.97083 26.721874 90.40833Q27.20625 89.84583 28.1125 89.11146Q29.51875 87.95521 30.003124 87.28333Q30.503124 86.61146 30.503124 86.01771Q30.503124 85.39271 30.05 84.97083Q29.596874 84.53333 28.878124 84.53333Q28.1125 84.53333 27.659374 84.98646Q27.20625 85.43958 27.190624 86.25208L26.1125 86.14271Q26.221874 84.92396 26.940624 84.29896Q27.675 83.65833 28.909374 83.65833Q30.14375 83.65833 30.8625 84.34583Q31.58125 85.03333 31.58125 86.04896Q31.58125 86.56458 31.3625 87.06458Q31.159374 87.54896 30.659374 88.11146Q30.175 88.65833 29.05 89.61146Q28.096874 90.40833 27.815624 90.70521Q27.55 90.98646 27.378124 91.26771L31.596874 91.26771ZM33.05 90.03333L34.159374 89.93958Q34.284374 90.75208 34.721874 91.15833Q35.175 91.56458 35.815624 91.56458Q36.565624 91.56458 37.096874 90.98646Q37.628124 90.40833 37.628124 89.47083Q37.628124 88.56458 37.1125 88.04896Q36.6125 87.51771 35.784374 87.51771Q35.284374 87.51771 34.8625 87.75208Q34.45625 87.98646 34.221874 88.34583L33.2375 88.22083L34.065624 83.81458L38.346874 83.81458L38.346874 84.81458L34.909374 84.81458L34.45625 87.12708Q35.221874 86.58021 36.065624 86.58021Q37.190624 86.58021 37.95625 87.36146Q38.7375 88.14271 38.7375 89.37708Q38.7375 90.53333 38.065624 91.39271Q37.2375 92.42396 35.815624 92.42396Q34.64375 92.42396 33.89375 91.76771Q33.159374 91.11146 33.05 90.03333ZM40.05 88.04896Q40.05 86.51771 40.3625 85.59583Q40.675 84.65833 41.284374 84.15833Q41.909374 83.65833 42.846874 83.65833Q43.534374 83.65833 44.05 83.93958Q44.58125 84.22083 44.925 84.75208Q45.26875 85.26771 45.45625 86.01771Q45.64375 86.76771 45.64375 88.04896Q45.64375 89.56458 45.33125 90.48646Q45.034374 91.40833 44.409374 91.92396Q43.8 92.42396 42.846874 92.42396Q41.6125 92.42396 40.89375 91.53333Q40.05 90.47083 40.05 88.04896ZM41.128124 88.04896Q41.128124 90.15833 41.628124 90.86146Q42.128124 91.56458 42.846874 91.56458Q43.58125 91.56458 44.065624 90.86146Q44.565624 90.15833 44.565624 88.04896Q44.565624 85.92396 44.065624 85.23646Q43.58125 84.53333 42.83125 84.53333Q42.1125 84.53333 41.675 85.14271Q41.128124 85.92396 41.128124 88.04896ZM47.05 88.04896Q47.05 86.51771 47.3625 85.59583Q47.675 84.65833 48.284374 84.15833Q48.909374 83.65833 49.846874 83.65833Q50.534374 83.65833 51.05 83.93958Q51.58125 84.22083 51.925 84.75208Q52.26875 85.26771 52.45625 86.01771Q52.64375 86.76771 52.64375 88.04896Q52.64375 89.56458 52.33125 90.48646Q52.034374 91.40833 51.409374 91.92396Q50.8 92.42396 49.846874 92.42396Q48.6125 92.42396 47.89375 91.53333Q47.05 90.47083 47.05 88.04896ZM48.128124 88.04896Q48.128124 90.15833 48.628124 90.86146Q49.128124 91.56458 49.846874 91.56458Q50.58125 91.56458 51.065624 90.86146Q51.565624 90.15833 51.565624 88.04896Q51.565624 85.92396 51.065624 85.23646Q50.58125 84.53333 49.83125 84.53333Q49.1125 84.53333 48.675 85.14271Q48.128124 85.92396 48.128124 88.04896ZM54.05 88.04896Q54.05 86.51771 54.3625 85.59583Q54.675 84.65833 55.284374 84.15833Q55.909374 83.65833 56.846874 83.65833Q57.534374 83.65833 58.05 83.93958Q58.58125 84.22083 58.925 84.75208Q59.26875 85.26771 59.45625 86.01771Q59.64375 86.76771 59.64375 88.04896Q59.64375 89.56458 59.33125 90.48646Q59.034374 91.40833 58.409374 91.92396Q57.8 92.42396 56.846874 92.42396Q55.6125 92.42396 54.89375 91.53333Q54.05 90.47083 54.05 88.04896ZM55.128124 88.04896Q55.128124 90.15833 55.628124 90.86146Q56.128124 91.56458 56.846874 91.56458Q57.58125 91.56458 58.065624 90.86146Q58.565624 90.15833 58.565624 88.04896Q58.565624 85.92396 58.065624 85.23646Q57.58125 84.53333 56.83125 84.53333Q56.1125 84.53333 55.675 85.14271Q55.128124 85.92396 55.128124 88.04896Z" fill-rule="nonzero"/><path fill="#000000" d="M163.25163 346.075L163.25163 345.075L166.87663 345.0594L166.87663 348.2469Q166.04851 348.91876 165.15788 349.2625Q164.26726 349.59064 163.32976 349.59064Q162.06413 349.59064 161.01726 349.0594Q159.98601 348.5125 159.45476 347.4969Q158.93913 346.46564 158.93913 345.2Q158.93913 343.9344 159.45476 342.85626Q159.98601 341.7625 160.97038 341.2469Q161.95476 340.71564 163.23601 340.71564Q164.17351 340.71564 164.92351 341.0125Q165.67351 341.3094 166.09538 341.85626Q166.53288 342.3875 166.75163 343.2625L165.73601 343.54376Q165.53288 342.8875 165.23601 342.5125Q164.95476 342.1375 164.42351 341.91876Q163.89226 341.6844 163.25163 341.6844Q162.47038 341.6844 161.89226 341.91876Q161.32976 342.15314 160.97038 342.54376Q160.62663 342.9344 160.43913 343.40314Q160.11101 344.2 160.11101 345.1219Q160.11101 346.27814 160.50163 347.0594Q160.90788 347.825 161.65788 348.2Q162.40788 348.575 163.26726 348.575Q164.00163 348.575 164.70476 348.29376Q165.40788 347.9969 165.76726 347.6844L165.76726 346.075L163.25163 346.075ZM168.25163 349.45L168.25163 340.85626L174.45476 340.85626L174.45476 341.8719L169.39226 341.8719L169.39226 344.4969L174.14226 344.4969L174.14226 345.5125L169.39226 345.5125L169.39226 348.4344L174.65788 348.4344L174.65788 349.45L168.25163 349.45ZM178.40788 349.45L178.40788 341.8719L175.57976 341.8719L175.57976 340.85626L182.39226 340.85626L182.39226 341.8719L179.54851 341.8719L179.54851 349.45L178.40788 349.45Z" fill-rule="nonzero"/><path fill="#000000" d="M313.04688 346.6844L314.10938 346.59064Q314.1875 347.2469 314.46875 347.65314Q314.75 348.0594 315.32812 348.325Q315.92188 348.575 316.65625 348.575Q317.29688 348.575 317.79688 348.3875Q318.29688 348.1844 318.53125 347.85626Q318.78125 347.5125 318.78125 347.1219Q318.78125 346.71564 318.54688 346.41876Q318.3125 346.10626 317.78125 345.90314Q317.42188 345.7625 316.23438 345.48126Q315.0625 345.2 314.59375 344.95Q313.96875 344.6219 313.67188 344.15314Q313.375 343.66876 313.375 343.075Q313.375 342.4344 313.73438 341.8719Q314.10938 341.29376 314.8125 341.0125Q315.53125 340.71564 316.39062 340.71564Q317.34375 340.71564 318.07812 341.02814Q318.8125 341.325 319.20312 341.9344Q319.59375 342.52814 319.625 343.27814L318.53125 343.35626Q318.4375 342.54376 317.92188 342.1375Q317.42188 341.71564 316.4375 341.71564Q315.40625 341.71564 314.9375 342.09064Q314.46875 342.46564 314.46875 342.9969Q314.46875 343.46564 314.79688 343.7625Q315.125 344.0594 316.5 344.3719Q317.89062 344.6844 318.40625 344.91876Q319.15625 345.27814 319.51562 345.8094Q319.875 346.325 319.875 347.02814Q319.875 347.71564 319.48438 348.325Q319.09375 348.91876 318.35938 349.2625Q317.625 349.59064 316.70312 349.59064Q315.53125 349.59064 314.73438 349.2625Q313.95312 348.91876 313.5 348.23126Q313.0625 347.54376 313.04688 346.6844ZM321.45312 349.45L321.45312 340.85626L327.65625 340.85626L327.65625 341.8719L322.59375 341.8719L322.59375 344.4969L327.34375 344.4969L327.34375 345.5125L322.59375 345.5125L322.59375 348.4344L327.85938 348.4344L327.85938 349.45L321.45312 349.45ZM331.60938 349.45L331.60938 341.8719L328.78125 341.8719L328.78125 340.85626L335.59375 340.85626L335.59375 341.8719L332.75 341.8719L332.75 349.45L331.60938 349.45Z" fill-rule="nonzero"/><path fill="#000000" d="M455.15463 346.075L455.15463 345.075L458.77963 345.0594L458.77963 348.2469Q457.9515 348.91876 457.06088 349.2625Q456.17026 349.59064 455.23276 349.59064Q453.96713 349.59064 452.92026 349.0594Q451.889 348.5125 451.35776 347.4969Q450.84213 346.46564 450.84213 345.2Q450.84213 343.9344 451.35776 342.85626Q451.889 341.7625 452.87338 341.2469Q453.85776 340.71564 455.139 340.71564Q456.0765 340.71564 456.8265 341.0125Q457.5765 341.3094 457.99838 341.85626Q458.43588 342.3875 458.65463 343.2625L457.639 343.54376Q457.43588 342.8875 457.139 342.5125Q456.85776 342.1375 456.3265 341.91876Q455.79526 341.6844 455.15463 341.6844Q454.37338 341.6844 453.79526 341.91876Q453.23276 342.15314 452.87338 342.54376Q452.52963 342.9344 452.34213 343.40314Q452.014 344.2 452.014 345.1219Q452.014 346.27814 452.40463 347.0594Q452.81088 347.825 453.56088 348.2Q454.31088 348.575 455.17026 348.575Q455.90463 348.575 456.60776 348.29376Q457.31088 347.9969 457.67026 347.6844L457.67026 346.075L455.15463 346.075ZM460.15463 349.45L460.15463 340.85626L466.35776 340.85626L466.35776 341.8719L461.29526 341.8719L461.29526 344.4969L466.04526 344.4969L466.04526 345.5125L461.29526 345.5125L461.29526 348.4344L466.56088 348.4344L466.56088 349.45L460.15463 349.45ZM470.31088 349.45L470.31088 341.8719L467.48276 341.8719L467.48276 340.85626L474.29526 340.85626L474.29526 341.8719L471.4515 341.8719L471.4515 349.45L470.31088 349.45ZM479.90463 348.4344Q479.389 349.0125 478.764 349.3094Q478.15463 349.59064 477.43588 349.59064Q476.12338 349.59064 475.34213 348.7Q474.71713 347.98126 474.71713 347.075Q474.71713 346.27814 475.23276 345.6375Q475.74838 344.9969 476.764 344.5125Q476.18588 343.84064 475.98276 343.4344Q475.79526 343.0125 475.79526 342.6219Q475.79526 341.85626 476.40463 341.29376Q477.014 340.71564 477.93588 340.71564Q478.81088 340.71564 479.35776 341.2625Q479.92026 341.79376 479.92026 342.54376Q479.92026 343.77814 478.31088 344.6375L479.84213 346.60626Q480.10776 346.09064 480.24838 345.40314L481.35776 345.6375Q481.0765 346.7625 480.59213 347.4969Q481.18588 348.27814 481.93588 348.8094L481.21713 349.65314Q480.5765 349.23126 479.90463 348.4344ZM477.764 343.96564Q478.4515 343.5594 478.639 343.2625Q478.84213 342.95 478.84213 342.575Q478.84213 342.1375 478.56088 341.85626Q478.29526 341.575 477.87338 341.575Q477.4515 341.575 477.15463 341.85626Q476.87338 342.1375 476.87338 342.52814Q476.87338 342.73126 476.98276 342.95Q477.09213 343.16876 477.29526 343.41876L477.764 343.96564ZM479.24838 347.60626L477.31088 345.2Q476.4515 345.71564 476.15463 346.15314Q475.85776 346.59064 475.85776 347.0125Q475.85776 347.54376 476.264 348.10626Q476.68588 348.66876 477.4515 348.66876Q477.92026 348.66876 478.42026 348.3719Q478.93588 348.075 479.24838 347.60626ZM482.74838 346.6844L483.81088 346.59064Q483.889 347.2469 484.17026 347.65314Q484.4515 348.0594 485.02963 348.325Q485.62338 348.575 486.35776 348.575Q486.99838 348.575 487.49838 348.3875Q487.99838 348.1844 488.23276 347.85626Q488.48276 347.5125 488.48276 347.1219Q488.48276 346.71564 488.24838 346.41876Q488.014 346.10626 487.48276 345.90314Q487.12338 345.7625 485.93588 345.48126Q484.764 345.2 484.29526 344.95Q483.67026 344.6219 483.37338 344.15314Q483.0765 343.66876 483.0765 343.075Q483.0765 342.4344 483.43588 341.8719Q483.81088 341.29376 484.514 341.0125Q485.23276 340.71564 486.09213 340.71564Q487.04526 340.71564 487.77963 341.02814Q488.514 341.325 488.90463 341.9344Q489.29526 342.52814 489.3265 343.27814L488.23276 343.35626Q488.139 342.54376 487.62338 342.1375Q487.12338 341.71564 486.139 341.71564Q485.10776 341.71564 484.639 342.09064Q484.17026 342.46564 484.17026 342.9969Q484.17026 343.46564 484.49838 343.7625Q484.8265 344.0594 486.2015 344.3719Q487.59213 344.6844 488.10776 344.91876Q488.85776 345.27814 489.21713 345.8094Q489.5765 346.325 489.5765 347.02814Q489.5765 347.71564 489.18588 348.325Q488.79526 348.91876 488.06088 349.2625Q487.3265 349.59064 486.40463 349.59064Q485.23276 349.59064 484.43588 349.2625Q483.65463 348.91876 483.2015 348.23126Q482.764 347.54376 482.74838 346.6844ZM491.15463 349.45L491.15463 340.85626L497.35776 340.85626L497.35776 341.8719L492.29526 341.8719L492.29526 344.4969L497.04526 344.4969L497.04526 345.5125L492.29526 345.5125L492.29526 348.4344L497.56088 348.4344L497.56088 349.45L491.15463 349.45ZM501.31088 349.45L501.31088 341.8719L498.48276 341.8719L498.48276 340.85626L505.29526 340.85626L505.29526 341.8719L502.4515 341.8719L502.4515 349.45L501.31088 349.45Z" fill-rule="nonzero"/><path fill="#4285f4" d="M202.5 56.916668C202.5 56.364384 202.94771 55.916668 203.5 55.916668L213.5 55.916668C214.05229 55.916668 214.5 56.364384 214.5 56.916668L214.5 66.916664C214.5 67.46895 214.05229 67.916664 213.5 67.916664L203.5 67.916664C202.94771 67.916664 202.5 67.46895 202.5 66.916664Z" fill-rule="nonzero"/><path fill="#1a1a1a" d="M223.4375 65.916664L223.4375 57.322914L227.25 57.322914Q228.40625 57.322914 229.0 57.55729Q229.59375 57.791664 229.95312 58.385414Q230.3125 58.96354 230.3125 59.666664Q230.3125 60.58854 229.71875 61.21354Q229.125 61.83854 227.89062 62.010414Q228.34375 62.229164 228.57812 62.43229Q229.07812 62.885414 229.51562 63.572914L231.01562 65.916664L229.57812 65.916664L228.45312 64.135414Q227.95312 63.354164 227.625 62.947914Q227.3125 62.541664 227.04688 62.385414Q226.79688 62.21354 226.53125 62.135414Q226.34375 62.104164 225.90625 62.104164L224.57812 62.104164L224.57812 65.916664L223.4375 65.916664ZM224.57812 61.11979L227.03125 61.11979Q227.79688 61.11979 228.23438 60.96354Q228.6875 60.791664 228.90625 60.447914Q229.14062 60.08854 229.14062 59.666664Q229.14062 59.05729 228.6875 58.666664Q228.25 58.27604 227.29688 58.27604L224.57812 58.27604L224.57812 61.11979ZM232.45312 65.916664L232.45312 57.322914L238.65625 57.322914L238.65625 58.33854L233.59375 58.33854L233.59375 60.96354L238.34375 60.96354L238.34375 61.979164L233.59375 61.979164L233.59375 64.90104L238.85938 64.90104L238.85938 65.916664L232.45312 65.916664ZM240.42188 65.916664L240.42188 57.322914L243.39062 57.322914Q244.39062 57.322914 244.92188 57.447914Q245.65625 57.61979 246.17188 58.05729Q246.85938 58.635414 247.1875 59.541664Q247.53125 60.43229 247.53125 61.572914Q247.53125 62.55729 247.29688 63.30729Q247.07812 64.05729 246.71875 64.55729Q246.35938 65.05729 245.92188 65.33854Q245.5 65.61979 244.90625 65.77604Q244.3125 65.916664 243.53125 65.916664L240.42188 65.916664ZM241.5625 64.90104L243.39062 64.90104Q244.25 64.90104 244.73438 64.74479Q245.21875 64.58854 245.5 64.291664Q245.90625 63.90104 246.125 63.21354Q246.35938 62.52604 246.35938 61.55729Q246.35938 60.21354 245.90625 59.49479Q245.46875 58.760414 244.84375 58.510414Q244.375 58.33854 243.375 58.33854L241.5625 58.33854L241.5625 64.90104ZM249.625 65.916664L249.625 57.322914L250.75 57.322914L250.75 65.916664L249.625 65.916664ZM252.04688 63.15104L253.10938 63.05729Q253.1875 63.71354 253.46875 64.11979Q253.75 64.52604 254.32812 64.791664Q254.92188 65.041664 255.65625 65.041664Q256.29688 65.041664 256.79688 64.854164Q257.29688 64.65104 257.53125 64.322914Q257.78125 63.979164 257.78125 63.58854Q257.78125 63.18229 257.54688 62.885414Q257.3125 62.572914 256.78125 62.36979Q256.42188 62.229164 255.23438 61.947914Q254.0625 61.666664 253.59375 61.416664Q252.96875 61.08854 252.67188 60.61979Q252.375 60.135414 252.375 59.541664Q252.375 58.90104 252.73438 58.33854Q253.10938 57.760414 253.8125 57.479164Q254.53125 57.18229 255.39062 57.18229Q256.34375 57.18229 257.07812 57.49479Q257.8125 57.791664 258.20312 58.40104Q258.59375 58.99479 258.625 59.74479L257.53125 59.822914Q257.4375 59.010414 256.92188 58.604164Q256.42188 58.18229 255.4375 58.18229Q254.40625 58.18229 253.9375 58.55729Q253.46875 58.93229 253.46875 59.46354Q253.46875 59.93229 253.79688 60.229164Q254.125 60.52604 255.5 60.83854Q256.89062 61.15104 257.40625 61.385414Q258.15625 61.74479 258.51562 62.27604Q258.875 62.791664 258.875 63.49479Q258.875 64.18229 258.48438 64.791664Q258.09375 65.385414 257.35938 65.729164Q256.625 66.05729 255.70312 66.05729Q254.53125 66.05729 253.73438 65.729164Q252.95312 65.385414 252.5 64.697914Q252.0625 64.010414 252.04688 63.15104Z" fill-rule="nonzero"/><path fill="#ea4335" d="M275.5 56.916668C275.5 56.364384 275.94772 55.916668 276.5 55.916668L286.5 55.916668C287.05228 55.916668 287.5 56.364384 287.5 56.916668L287.5 66.916664C287.5 67.46895 287.05228 67.916664 286.5 67.916664L276.5 67.916664C275.94772 67.916664 275.5 67.46895 275.5 66.916664Z" fill-rule="nonzero"/><path fill="#1a1a1a" d="M296.42188 65.916664L296.42188 57.322914L299.39062 57.322914Q300.39062 57.322914 300.92188 57.447914Q301.65625 57.61979 302.17188 58.05729Q302.85938 58.635414 303.1875 59.541664Q303.53125 60.43229 303.53125 61.572914Q303.53125 62.55729 303.29688 63.30729Q303.07812 64.05729 302.71875 64.55729Q302.35938 65.05729 301.92188 65.33854Q301.5 65.61979 300.90625 65.77604Q300.3125 65.916664 299.53125 65.916664L296.42188 65.916664ZM297.5625 64.90104L299.39062 64.90104Q300.25 64.90104 300.73438 64.74479Q301.21875 64.58854 301.5 64.291664Q301.90625 63.90104 302.125 63.21354Q302.35938 62.52604 302.35938 61.55729Q302.35938 60.21354 301.90625 59.49479Q301.46875 58.760414 300.84375 58.510414Q300.375 58.33854 299.375 58.33854L297.5625 58.33854L297.5625 64.90104ZM305.48438 65.916664L305.48438 57.322914L311.28125 57.322914L311.28125 58.33854L306.625 58.33854L306.625 60.99479L310.65625 60.99479L310.65625 62.010414L306.625 62.010414L306.625 65.916664L305.48438 65.916664Z" fill-rule="nonzero"/><path fill="#fbbc04" d="M327.5 56.916668C327.5 56.364384 327.94772 55.916668 328.5 55.916668L338.5 55.916668C339.05228 55.916668 339.5 56.364384 339.5 56.916668L339.5 66.916664C339.5 67.46895 339.05228 67.916664 338.5 67.916664L328.5 67.916664C327.94772 67.916664 327.5 67.46895 327.5 66.916664Z" fill-rule="nonzero"/><path fill="#1a1a1a" d="M348.4375 65.916664L348.4375 57.322914L352.25 57.322914Q353.40625 57.322914 354.0 57.55729Q354.59375 57.791664 354.95312 58.385414Q355.3125 58.96354 355.3125 59.666664Q355.3125 60.58854 354.71875 61.21354Q354.125 61.83854 352.89062 62.010414Q353.34375 62.229164 353.57812 62.43229Q354.07812 62.885414 354.51562 63.572914L356.01562 65.916664L354.57812 65.916664L353.45312 64.135414Q352.95312 63.354164 352.625 62.947914Q352.3125 62.541664 352.04688 62.385414Q351.79688 62.21354 351.53125 62.135414Q351.34375 62.104164 350.90625 62.104164L349.57812 62.104164L349.57812 65.916664L348.4375 65.916664ZM349.57812 61.11979L352.03125 61.11979Q352.79688 61.11979 353.23438 60.96354Q353.6875 60.791664 353.90625 60.447914Q354.14062 60.08854 354.14062 59.666664Q354.14062 59.05729 353.6875 58.666664Q353.25 58.27604 352.29688 58.27604L349.57812 58.27604L349.57812 61.11979ZM357.07812 61.729164Q357.07812 59.58854 358.21875 58.385414Q359.375 57.166664 361.1875 57.166664Q362.39062 57.166664 363.34375 57.74479Q364.29688 58.30729 364.79688 59.322914Q365.29688 60.33854 365.29688 61.635414Q365.29688 62.93229 364.76562 63.96354Q364.23438 64.99479 363.26562 65.52604Q362.3125 66.05729 361.1875 66.05729Q359.96875 66.05729 359.01562 65.479164Q358.0625 64.885414 357.5625 63.885414Q357.07812 62.86979 357.07812 61.729164ZM358.25 61.74479Q358.25 63.30729 359.07812 64.197914Q359.92188 65.08854 361.1875 65.08854Q362.46875 65.08854 363.29688 64.197914Q364.125 63.291664 364.125 61.61979Q364.125 60.572914 363.76562 59.791664Q363.42188 59.010414 362.73438 58.58854Q362.04688 58.15104 361.20312 58.15104Q360.0 58.15104 359.125 58.979164Q358.25 59.80729 358.25 61.74479ZM366.04688 63.15104L367.10938 63.05729Q367.1875 63.71354 367.46875 64.11979Q367.75 64.52604 368.32812 64.791664Q368.92188 65.041664 369.65625 65.041664Q370.29688 65.041664 370.79688 64.854164Q371.29688 64.65104 371.53125 64.322914Q371.78125 63.979164 371.78125 63.58854Q371.78125 63.18229 371.54688 62.885414Q371.3125 62.572914 370.78125 62.36979Q370.42188 62.229164 369.23438 61.947914Q368.0625 61.666664 367.59375 61.416664Q366.96875 61.08854 366.67188 60.61979Q366.375 60.135414 366.375 59.541664Q366.375 58.90104 366.73438 58.33854Q367.10938 57.760414 367.8125 57.479164Q368.53125 57.18229 369.39062 57.18229Q370.34375 57.18229 371.07812 57.49479Q371.8125 57.791664 372.20312 58.40104Q372.59375 58.99479 372.625 59.74479L371.53125 59.822914Q371.4375 59.010414 370.92188 58.604164Q370.42188 58.18229 369.4375 58.18229Q368.40625 58.18229 367.9375 58.55729Q367.46875 58.93229 367.46875 59.46354Q367.46875 59.93229 367.79688 60.229164Q368.125 60.52604 369.5 60.83854Q370.89062 61.15104 371.40625 61.385414Q372.15625 61.74479 372.51562 62.27604Q372.875 62.791664 372.875 63.49479Q372.875 64.18229 372.48438 64.791664Q372.09375 65.385414 371.35938 65.729164Q370.625 66.05729 369.70312 66.05729Q368.53125 66.05729 367.73438 65.729164Q366.95312 65.385414 366.5 64.697914Q366.0625 64.010414 366.04688 63.15104ZM376.60938 65.916664L376.60938 58.33854L373.78125 58.33854L373.78125 57.322914L380.59375 57.322914L380.59375 58.33854L377.75 58.33854L377.75 65.916664L376.60938 65.916664ZM381.45312 65.916664L381.45312 57.322914L387.65625 57.322914L387.65625 58.33854L382.59375 58.33854L382.59375 60.96354L387.34375 60.96354L387.34375 61.979164L382.59375 61.979164L382.59375 64.90104L387.85938 64.90104L387.85938 65.916664L381.45312 65.916664ZM389.4375 65.916664L389.4375 57.322914L393.25 57.322914Q394.40625 57.322914 395.0 57.55729Q395.59375 57.791664 395.95312 58.385414Q396.3125 58.96354 396.3125 59.666664Q396.3125 60.58854 395.71875 61.21354Q395.125 61.83854 393.89062 62.010414Q394.34375 62.229164 394.57812 62.43229Q395.07812 62.885414 395.51562 63.572914L397.01562 65.916664L395.57812 65.916664L394.45312 64.135414Q393.95312 63.354164 393.625 62.947914Q393.3125 62.541664 393.04688 62.385414Q392.79688 62.21354 392.53125 62.135414Q392.34375 62.104164 391.90625 62.104164L390.57812 62.104164L390.57812 65.916664L389.4375 65.916664ZM390.57812 61.11979L393.03125 61.11979Q393.79688 61.11979 394.23438 60.96354Q394.6875 60.791664 394.90625 60.447914Q395.14062 60.08854 395.14062 59.666664Q395.14062 59.05729 394.6875 58.666664Q394.25 58.27604 393.29688 58.27604L390.57812 58.27604L390.57812 61.11979Z" fill-rule="nonzero"/><path fill="#757575" d="M20.128124 37.55L20.128124 23.2375L30.4875 23.2375L30.4875 24.925L22.034374 24.925L22.034374 29.3L29.940624 29.3L29.940624 30.9875L22.034374 30.9875L22.034374 35.8625L30.815624 35.8625L30.815624 37.55L20.128124 37.55ZM33.08125 37.55L33.08125 23.2375L35.01875 23.2375L42.534374 34.471874L42.534374 23.2375L44.346874 23.2375L44.346874 37.55L42.409374 37.55L34.89375 26.3L34.89375 37.55L33.08125 37.55ZM49.7375 37.55L49.7375 24.925L45.01875 24.925L45.01875 23.2375L56.3625 23.2375L56.3625 24.925L51.628124 24.925L51.628124 37.55L49.7375 37.55ZM64.00313 37.55L62.2375 37.55L62.2375 26.346874Q61.6125 26.95625 60.58125 27.565624Q59.55 28.159374 58.721874 28.471874L58.721874 26.76875Q60.20625 26.08125 61.3 25.096874Q62.409374 24.096874 62.8625 23.175L64.00313 23.175L64.00313 37.55ZM68.19063 33.253124L68.19063 31.4875L73.58125 31.4875L73.58125 33.253124L68.19063 33.253124ZM76.03438 37.55L76.03438 23.2375L78.89375 23.2375L82.26875 33.3625Q82.7375 34.784374 82.95625 35.4875Q83.20625 34.70625 83.72188 33.190624L87.14375 23.2375L89.69063 23.2375L89.69063 37.55L87.87813 37.55L87.87813 25.565624L83.70625 37.55L82.00313 37.55L77.8625 25.3625L77.8625 37.55L76.03438 37.55ZM98.45625 32.95625L100.2375 32.8Q100.3625 33.8625 100.81563 34.55Q101.28438 35.2375 102.25313 35.675Q103.2375 36.096874 104.47188 36.096874Q105.55 36.096874 106.37813 35.784374Q107.20625 35.45625 107.6125 34.89375Q108.01875 34.33125 108.01875 33.659374Q108.01875 32.9875 107.62813 32.4875Q107.2375 31.9875 106.34688 31.64375Q105.76875 31.409374 103.78438 30.940624Q101.81563 30.471874 101.03438 30.05Q100.00313 29.51875 99.50313 28.721874Q99.00313 27.925 99.00313 26.940624Q99.00313 25.846874 99.6125 24.909374Q100.22188 23.971874 101.40938 23.4875Q102.59688 22.9875 104.03438 22.9875Q105.62813 22.9875 106.84688 23.503124Q108.06563 24.01875 108.70625 25.01875Q109.3625 26.003124 109.40938 27.26875L107.59688 27.409374Q107.45625 26.05 106.6125 25.3625Q105.76875 24.659374 104.1125 24.659374Q102.39375 24.659374 101.59688 25.3Q100.81563 25.925 100.81563 26.8Q100.81563 27.58125 101.37813 28.08125Q101.925 28.58125 104.2375 29.096874Q106.55 29.6125 107.40938 30.003124Q108.65938 30.58125 109.25313 31.471874Q109.84688 32.346874 109.84688 33.503124Q109.84688 34.64375 109.19063 35.659374Q108.53438 36.675 107.3 37.2375Q106.08125 37.8 104.55 37.8Q102.6125 37.8 101.3 37.2375Q99.9875 36.659374 99.2375 35.51875Q98.4875 34.378124 98.45625 32.95625ZM118.64375 33.753124L120.3625 33.971874Q120.08125 35.76875 118.90938 36.784374Q117.75313 37.784374 116.05 37.784374Q113.925 37.784374 112.62813 36.39375Q111.33125 35.003124 111.33125 32.409374Q111.33125 30.721874 111.87813 29.471874Q112.44063 28.20625 113.58125 27.58125Q114.72188 26.940624 116.06563 26.940624Q117.75313 26.940624 118.81563 27.8Q119.89375 28.659374 120.20625 30.221874L118.4875 30.4875Q118.25313 29.440624 117.62813 28.925Q117.00313 28.39375 116.12813 28.39375Q114.8 28.39375 113.97188 29.346874Q113.14375 30.3 113.14375 32.346874Q113.14375 34.440624 113.94063 35.39375Q114.7375 36.33125 116.03438 36.33125Q117.06563 36.33125 117.75313 35.70625Q118.45625 35.065624 118.64375 33.753124ZM128.64375 36.26875Q127.65938 37.096874 126.75313 37.440624Q125.84688 37.784374 124.81563 37.784374Q123.1125 37.784374 122.19063 36.95625Q121.26875 36.1125 121.26875 34.815624Q121.26875 34.05 121.6125 33.425Q121.97188 32.8 122.53438 32.425Q123.09688 32.034374 123.8 31.83125Q124.31563 31.70625 125.3625 31.565624Q127.4875 31.315624 128.4875 30.971874Q128.50313 30.6125 128.50313 30.503124Q128.50313 29.440624 128.00313 28.9875Q127.33125 28.39375 126.00313 28.39375Q124.75313 28.39375 124.15938 28.83125Q123.58125 29.26875 123.3 30.378124L121.58125 30.14375Q121.81563 29.034374 122.34688 28.3625Q122.87813 27.675 123.89375 27.315624Q124.90938 26.940624 126.25313 26.940624Q127.58125 26.940624 128.40938 27.253124Q129.2375 27.565624 129.62813 28.05Q130.01875 28.51875 130.175 29.2375Q130.26875 29.690624 130.26875 30.8625L130.26875 33.20625Q130.26875 35.659374 130.37813 36.315624Q130.4875 36.95625 130.83125 37.55L128.9875 37.55Q128.72188 37.003124 128.64375 36.26875ZM128.4875 32.346874Q127.53438 32.7375 125.6125 33.003124Q124.53438 33.159374 124.08125 33.3625Q123.64375 33.55 123.39375 33.925Q123.14375 34.3 123.14375 34.76875Q123.14375 35.471874 123.675 35.940624Q124.20625 36.409374 125.2375 36.409374Q126.25313 36.409374 127.03438 35.971874Q127.83125 35.51875 128.20625 34.753124Q128.4875 34.14375 128.4875 32.9875L128.4875 32.346874ZM132.83125 37.55L132.83125 23.2375L134.58125 23.2375L134.58125 37.55L132.83125 37.55ZM143.97188 34.20625L145.78438 34.440624Q145.3625 36.01875 144.19063 36.909374Q143.03438 37.784374 141.22188 37.784374Q138.95625 37.784374 137.6125 36.39375Q136.28438 34.9875 136.28438 32.45625Q136.28438 29.83125 137.62813 28.39375Q138.97188 26.940624 141.12813 26.940624Q143.20625 26.940624 144.51875 28.3625Q145.84688 29.76875 145.84688 32.346874Q145.84688 32.503124 145.83125 32.815624L138.09688 32.815624Q138.19063 34.51875 139.06563 35.425Q139.94063 36.33125 141.2375 36.33125Q142.20625 36.33125 142.87813 35.83125Q143.56563 35.315624 143.97188 34.20625ZM138.19063 31.3625L143.9875 31.3625Q143.87813 30.065624 143.33125 29.409374Q142.4875 28.39375 141.14375 28.39375Q139.94063 28.39375 139.1125 29.20625Q138.28438 30.003124 138.19063 31.3625ZM149.78438 37.55L146.6125 27.175L148.425 27.175L150.08125 33.159374L150.69063 35.39375Q150.7375 35.221874 151.22188 33.253124L152.87813 27.175L154.69063 27.175L156.2375 33.190624L156.75313 35.175L157.34688 33.175L159.12813 27.175L160.83125 27.175L157.59688 37.55L155.76875 37.55L154.1125 31.33125L153.72188 29.565624L151.6125 37.55L149.78438 37.55ZM169.64375 36.26875Q168.65938 37.096874 167.75313 37.440624Q166.84688 37.784374 165.81563 37.784374Q164.1125 37.784374 163.19063 36.95625Q162.26875 36.1125 162.26875 34.815624Q162.26875 34.05 162.6125 33.425Q162.97188 32.8 163.53438 32.425Q164.09688 32.034374 164.8 31.83125Q165.31563 31.70625 166.3625 31.565624Q168.4875 31.315624 169.4875 30.971874Q169.50313 30.6125 169.50313 30.503124Q169.50313 29.440624 169.00313 28.9875Q168.33125 28.39375 167.00313 28.39375Q165.75313 28.39375 165.15938 28.83125Q164.58125 29.26875 164.3 30.378124L162.58125 30.14375Q162.81563 29.034374 163.34688 28.3625Q163.87813 27.675 164.89375 27.315624Q165.90938 26.940624 167.25313 26.940624Q168.58125 26.940624 169.40938 27.253124Q170.2375 27.565624 170.62813 28.05Q171.01875 28.51875 171.175 29.2375Q171.26875 29.690624 171.26875 30.8625L171.26875 33.20625Q171.26875 35.659374 171.37813 36.315624Q171.4875 36.95625 171.83125 37.55L169.9875 37.55Q169.72188 37.003124 169.64375 36.26875ZM169.4875 32.346874Q168.53438 32.7375 166.6125 33.003124Q165.53438 33.159374 165.08125 33.3625Q164.64375 33.55 164.39375 33.925Q164.14375 34.3 164.14375 34.76875Q164.14375 35.471874 164.675 35.940624Q165.20625 36.409374 166.2375 36.409374Q167.25313 36.409374 168.03438 35.971874Q168.83125 35.51875 169.20625 34.753124Q169.4875 34.14375 169.4875 32.9875L169.4875 32.346874ZM173.78438 41.55L173.59688 39.89375Q174.175 40.05 174.59688 40.05Q175.19063 40.05 175.53438 39.846874Q175.89375 39.659374 176.1125 39.315624Q176.28438 39.05 176.65938 38.003124Q176.70625 37.846874 176.81563 37.565624L172.87813 27.175L174.76875 27.175L176.925 33.190624Q177.34688 34.33125 177.675 35.58125Q177.9875 34.378124 178.39375 33.221874L180.6125 27.175L182.37813 27.175L178.425 37.721874Q177.8 39.440624 177.44063 40.08125Q176.97188 40.95625 176.3625 41.346874Q175.76875 41.753124 174.925 41.753124Q174.40938 41.753124 173.78438 41.55Z" fill-rule="nonzero"/></svg>